ISO-10303-21;
HEADER;
/* Generated by software containing ST-Developer
 * from STEP Tools, Inc. (www.steptools.com) 
 */

FILE_DESCRIPTION(
/* description */ (''),
/* implementation_level */ '2;1');

FILE_NAME(
/* name */ 'flametrenchv1.step',
/* time_stamp */ '2026-02-02T21:57:26+01:00',
/* author */ (''),
/* organization */ (''),
/* preprocessor_version */ 'ST-DEVELOPER v20.1',
/* originating_system */ 'Autodesk Translation Framework v14.24.0.0',
/* authorisation */ '');

FILE_SCHEMA (('AUTOMOTIVE_DESIGN { 1 0 10303 214 3 1 1 }'));
ENDSEC;

DATA;
#10=MECHANICAL_DESIGN_GEOMETRIC_PRESENTATION_REPRESENTATION('',(#85,#86,
#87,#88,#89),#1477);
#11=SHAPE_REPRESENTATION_RELATIONSHIP('SRR','None',#1484,#12);
#12=ADVANCED_BREP_SHAPE_REPRESENTATION('',(#90,#91,#92,#93,#94),#1476);
#13=CYLINDRICAL_SURFACE('',#619,40.);
#14=CYLINDRICAL_SURFACE('',#624,1.5);
#15=CYLINDRICAL_SURFACE('',#625,1.5);
#16=CYLINDRICAL_SURFACE('',#626,1.5);
#17=CYLINDRICAL_SURFACE('',#627,37.5);
#18=CYLINDRICAL_SURFACE('',#630,40.);
#19=CYLINDRICAL_SURFACE('',#635,1.5);
#20=CYLINDRICAL_SURFACE('',#638,1.5);
#21=CYLINDRICAL_SURFACE('',#641,1.5);
#22=CYLINDRICAL_SURFACE('',#644,1.5);
#23=CYLINDRICAL_SURFACE('',#647,1.5);
#24=CYLINDRICAL_SURFACE('',#650,40.);
#25=CYLINDRICAL_SURFACE('',#653,45.);
#26=CYLINDRICAL_SURFACE('',#658,1.5);
#27=CYLINDRICAL_SURFACE('',#661,1.5);
#28=CYLINDRICAL_SURFACE('',#664,1.5);
#29=CYLINDRICAL_SURFACE('',#669,45.);
#30=LINE('',#1090,#57);
#31=LINE('',#1134,#58);
#32=LINE('',#1178,#59);
#33=LINE('',#1256,#60);
#34=LINE('',#1334,#61);
#35=LINE('',#1376,#62);
#36=LINE('',#1382,#63);
#37=LINE('',#1390,#64);
#38=LINE('',#1396,#65);
#39=LINE('',#1402,#66);
#40=LINE('',#1408,#67);
#41=LINE('',#1414,#68);
#42=LINE('',#1420,#69);
#43=LINE('',#1426,#70);
#44=LINE('',#1434,#71);
#45=LINE('',#1440,#72);
#46=LINE('',#1446,#73);
#47=LINE('',#1451,#74);
#48=LINE('',#1453,#75);
#49=LINE('',#1455,#76);
#50=LINE('',#1456,#77);
#51=LINE('',#1459,#78);
#52=LINE('',#1461,#79);
#53=LINE('',#1462,#80);
#54=LINE('',#1468,#81);
#55=LINE('',#1470,#82);
#56=LINE('',#1471,#83);
#57=VECTOR('',#691,10.);
#58=VECTOR('',#696,40.);
#59=VECTOR('',#705,1.5);
#60=VECTOR('',#708,1.5);
#61=VECTOR('',#711,1.5);
#62=VECTOR('',#716,37.5);
#63=VECTOR('',#723,40.);
#64=VECTOR('',#734,1.5);
#65=VECTOR('',#741,1.5);
#66=VECTOR('',#748,1.5);
#67=VECTOR('',#755,1.5);
#68=VECTOR('',#762,1.5);
#69=VECTOR('',#769,40.);
#70=VECTOR('',#776,45.);
#71=VECTOR('',#787,1.5);
#72=VECTOR('',#794,1.5);
#73=VECTOR('',#801,1.5);
#74=VECTOR('',#806,10.);
#75=VECTOR('',#807,10.);
#76=VECTOR('',#808,10.);
#77=VECTOR('',#809,10.);
#78=VECTOR('',#812,10.);
#79=VECTOR('',#813,10.);
#80=VECTOR('',#814,10.);
#81=VECTOR('',#821,10.);
#82=VECTOR('',#824,10.);
#83=VECTOR('',#825,10.);
#84=B_SPLINE_SURFACE_WITH_KNOTS('',3,1,((#971,#972),(#973,#974),(#975,#976),
(#977,#978),(#979,#980),(#981,#982),(#983,#984),(#985,#986),(#987,#988),
(#989,#990),(#991,#992),(#993,#994),(#995,#996),(#997,#998),(#999,#1000),
(#1001,#1002),(#1003,#1004),(#1005,#1006),(#1007,#1008),(#1009,#1010),(#1011,
#1012),(#1013,#1014),(#1015,#1016),(#1017,#1018),(#1019,#1020),(#1021,#1022),
(#1023,#1024),(#1025,#1026),(#1027,#1028),(#1029,#1030),(#1031,#1032),(#1033,
#1034),(#1035,#1036),(#1037,#1038),(#1039,#1040),(#1041,#1042),(#1043,#1044),
(#1045,#1046),(#1047,#1048)),.UNSPECIFIED.,.T.,.F.,.F.,(4,2,2,2,2,2,2,2,
2,2,2,2,2,3,2,2,2,2,4),(2,2),(5.90814912166975,7.2302860566622,8.69520283221182,
10.1601196077912,11.6250363834004,13.0899531590394,14.5548699347082,16.0197867104067,
17.4847034861351,18.9496202618932,20.4145370376811,21.8794538134988,22.7557501598163,
23.6320465058706,25.0498143709542,26.4675822360627,27.9324990115229,29.397415787013,
29.5401956275404),(0.,1.),.UNSPECIFIED.);
#85=STYLED_ITEM('',(#1493),#90);
#86=STYLED_ITEM('',(#1493),#91);
#87=STYLED_ITEM('',(#1493),#92);
#88=STYLED_ITEM('',(#1493),#93);
#89=STYLED_ITEM('',(#1493),#94);
#90=MANIFOLD_SOLID_BREP('K\X\F6rper1',#594);
#91=MANIFOLD_SOLID_BREP('K\X\F6rper2',#595);
#92=MANIFOLD_SOLID_BREP('K\X\F6rper3',#596);
#93=MANIFOLD_SOLID_BREP('K\X\F6rper4',#597);
#94=MANIFOLD_SOLID_BREP('K\X\F6rper5',#598);
#95=FACE_BOUND('',#174,.T.);
#96=FACE_BOUND('',#176,.T.);
#97=FACE_BOUND('',#180,.T.);
#98=FACE_BOUND('',#182,.T.);
#99=FACE_BOUND('',#187,.T.);
#100=FACE_BOUND('',#188,.T.);
#101=FACE_BOUND('',#189,.T.);
#102=FACE_BOUND('',#191,.T.);
#103=FACE_BOUND('',#192,.T.);
#104=FACE_BOUND('',#193,.T.);
#105=FACE_BOUND('',#195,.T.);
#106=FACE_BOUND('',#197,.T.);
#107=FACE_BOUND('',#206,.T.);
#108=FACE_BOUND('',#207,.T.);
#109=FACE_BOUND('',#208,.T.);
#110=FACE_BOUND('',#209,.T.);
#111=FACE_BOUND('',#210,.T.);
#112=FACE_BOUND('',#211,.T.);
#113=FACE_BOUND('',#213,.T.);
#114=FACE_BOUND('',#214,.T.);
#115=FACE_BOUND('',#215,.T.);
#116=FACE_BOUND('',#216,.T.);
#117=FACE_BOUND('',#217,.T.);
#118=FACE_BOUND('',#218,.T.);
#119=FACE_BOUND('',#227,.T.);
#120=FACE_BOUND('',#228,.T.);
#121=FACE_BOUND('',#229,.T.);
#122=FACE_BOUND('',#231,.T.);
#123=FACE_BOUND('',#232,.T.);
#124=FACE_BOUND('',#233,.T.);
#125=PLANE('',#617);
#126=PLANE('',#618);
#127=PLANE('',#622);
#128=PLANE('',#623);
#129=PLANE('',#633);
#130=PLANE('',#634);
#131=PLANE('',#656);
#132=PLANE('',#657);
#133=PLANE('',#667);
#134=PLANE('',#668);
#135=PLANE('',#672);
#136=PLANE('',#673);
#137=PLANE('',#674);
#138=FACE_OUTER_BOUND('',#171,.T.);
#139=FACE_OUTER_BOUND('',#172,.T.);
#140=FACE_OUTER_BOUND('',#173,.T.);
#141=FACE_OUTER_BOUND('',#175,.T.);
#142=FACE_OUTER_BOUND('',#177,.T.);
#143=FACE_OUTER_BOUND('',#178,.T.);
#144=FACE_OUTER_BOUND('',#179,.T.);
#145=FACE_OUTER_BOUND('',#181,.T.);
#146=FACE_OUTER_BOUND('',#183,.T.);
#147=FACE_OUTER_BOUND('',#184,.T.);
#148=FACE_OUTER_BOUND('',#185,.T.);
#149=FACE_OUTER_BOUND('',#186,.T.);
#150=FACE_OUTER_BOUND('',#190,.T.);
#151=FACE_OUTER_BOUND('',#194,.T.);
#152=FACE_OUTER_BOUND('',#196,.T.);
#153=FACE_OUTER_BOUND('',#198,.T.);
#154=FACE_OUTER_BOUND('',#199,.T.);
#155=FACE_OUTER_BOUND('',#200,.T.);
#156=FACE_OUTER_BOUND('',#201,.T.);
#157=FACE_OUTER_BOUND('',#202,.T.);
#158=FACE_OUTER_BOUND('',#203,.T.);
#159=FACE_OUTER_BOUND('',#204,.T.);
#160=FACE_OUTER_BOUND('',#205,.T.);
#161=FACE_OUTER_BOUND('',#212,.T.);
#162=FACE_OUTER_BOUND('',#219,.T.);
#163=FACE_OUTER_BOUND('',#220,.T.);
#164=FACE_OUTER_BOUND('',#221,.T.);
#165=FACE_OUTER_BOUND('',#222,.T.);
#166=FACE_OUTER_BOUND('',#223,.T.);
#167=FACE_OUTER_BOUND('',#224,.T.);
#168=FACE_OUTER_BOUND('',#225,.T.);
#169=FACE_OUTER_BOUND('',#226,.T.);
#170=FACE_OUTER_BOUND('',#230,.T.);
#171=EDGE_LOOP('',(#409,#410,#411,#412));
#172=EDGE_LOOP('',(#413,#414,#415,#416));
#173=EDGE_LOOP('',(#417));
#174=EDGE_LOOP('',(#418));
#175=EDGE_LOOP('',(#419));
#176=EDGE_LOOP('',(#420));
#177=EDGE_LOOP('',(#421,#422,#423,#424));
#178=EDGE_LOOP('',(#425,#426,#427,#428));
#179=EDGE_LOOP('',(#429));
#180=EDGE_LOOP('',(#430));
#181=EDGE_LOOP('',(#431));
#182=EDGE_LOOP('',(#432));
#183=EDGE_LOOP('',(#433,#434,#435,#436,#437,#438));
#184=EDGE_LOOP('',(#439,#440,#441,#442,#443,#444));
#185=EDGE_LOOP('',(#445,#446,#447,#448,#449,#450));
#186=EDGE_LOOP('',(#451,#452,#453,#454));
#187=EDGE_LOOP('',(#455,#456));
#188=EDGE_LOOP('',(#457,#458));
#189=EDGE_LOOP('',(#459,#460));
#190=EDGE_LOOP('',(#461,#462,#463,#464));
#191=EDGE_LOOP('',(#465,#466));
#192=EDGE_LOOP('',(#467,#468));
#193=EDGE_LOOP('',(#469,#470));
#194=EDGE_LOOP('',(#471));
#195=EDGE_LOOP('',(#472));
#196=EDGE_LOOP('',(#473));
#197=EDGE_LOOP('',(#474));
#198=EDGE_LOOP('',(#475,#476,#477,#478));
#199=EDGE_LOOP('',(#479,#480,#481,#482));
#200=EDGE_LOOP('',(#483,#484,#485,#486));
#201=EDGE_LOOP('',(#487,#488,#489,#490));
#202=EDGE_LOOP('',(#491,#492,#493,#494));
#203=EDGE_LOOP('',(#495,#496,#497,#498));
#204=EDGE_LOOP('',(#499,#500,#501,#502));
#205=EDGE_LOOP('',(#503));
#206=EDGE_LOOP('',(#504));
#207=EDGE_LOOP('',(#505));
#208=EDGE_LOOP('',(#506));
#209=EDGE_LOOP('',(#507));
#210=EDGE_LOOP('',(#508));
#211=EDGE_LOOP('',(#509));
#212=EDGE_LOOP('',(#510));
#213=EDGE_LOOP('',(#511));
#214=EDGE_LOOP('',(#512));
#215=EDGE_LOOP('',(#513));
#216=EDGE_LOOP('',(#514));
#217=EDGE_LOOP('',(#515));
#218=EDGE_LOOP('',(#516));
#219=EDGE_LOOP('',(#517,#518,#519,#520));
#220=EDGE_LOOP('',(#521,#522,#523,#524));
#221=EDGE_LOOP('',(#525,#526,#527,#528));
#222=EDGE_LOOP('',(#529,#530,#531,#532));
#223=EDGE_LOOP('',(#533,#534,#535,#536));
#224=EDGE_LOOP('',(#537,#538,#539,#540));
#225=EDGE_LOOP('',(#541,#542,#543,#544));
#226=EDGE_LOOP('',(#545,#546,#547,#548));
#227=EDGE_LOOP('',(#549));
#228=EDGE_LOOP('',(#550));
#229=EDGE_LOOP('',(#551));
#230=EDGE_LOOP('',(#552,#553,#554,#555));
#231=EDGE_LOOP('',(#556));
#232=EDGE_LOOP('',(#557));
#233=EDGE_LOOP('',(#558));
#234=CIRCLE('',#612,39.2648150649784);
#235=CIRCLE('',#613,37.5);
#236=CIRCLE('',#614,40.);
#237=CIRCLE('',#615,79.0507413070344);
#238=CIRCLE('',#616,40.);
#239=CIRCLE('',#620,40.);
#240=CIRCLE('',#621,40.);
#241=CIRCLE('',#628,37.5);
#242=CIRCLE('',#629,37.5);
#243=CIRCLE('',#631,40.);
#244=CIRCLE('',#632,40.);
#245=CIRCLE('',#636,1.5);
#246=CIRCLE('',#637,1.5);
#247=CIRCLE('',#639,1.5);
#248=CIRCLE('',#640,1.5);
#249=CIRCLE('',#642,1.5);
#250=CIRCLE('',#643,1.5);
#251=CIRCLE('',#645,1.5);
#252=CIRCLE('',#646,1.5);
#253=CIRCLE('',#648,1.5);
#254=CIRCLE('',#649,1.5);
#255=CIRCLE('',#651,40.);
#256=CIRCLE('',#652,40.);
#257=CIRCLE('',#654,45.);
#258=CIRCLE('',#655,45.);
#259=CIRCLE('',#659,1.5);
#260=CIRCLE('',#660,1.5);
#261=CIRCLE('',#662,1.5);
#262=CIRCLE('',#663,1.5);
#263=CIRCLE('',#665,1.5);
#264=CIRCLE('',#666,1.5);
#265=CIRCLE('',#670,45.);
#266=CIRCLE('',#671,45.);
#267=B_SPLINE_CURVE_WITH_KNOTS('',3,(#877,#878,#879,#880,#881,#882,#883,
#884,#885,#886,#887,#888,#889,#890,#891,#892,#893,#894,#895,#896,#897,#898,
#899,#900,#901,#902,#903,#904,#905,#906,#907,#908,#909,#910,#911,#912,#913,
#914,#915),.UNSPECIFIED.,.T.,.F.,(4,2,2,2,2,2,2,2,2,2,2,2,2,3,2,2,2,2,4),
(5.90814912166975,7.2302860566622,8.69520283221182,10.1601196077912,11.6250363834004,
13.0899531590394,14.5548699347082,16.0197867104067,17.4847034861351,18.9496202618932,
20.4145370376811,21.8794538134988,22.7557501598163,23.6320465058706,25.0498143709542,
26.4675822360627,27.9324990115229,29.397415787013,29.5401956275404),
 .UNSPECIFIED.);
#268=B_SPLINE_CURVE_WITH_KNOTS('',3,(#1050,#1051,#1052,#1053,#1054,#1055,
#1056,#1057,#1058,#1059,#1060,#1061,#1062,#1063,#1064,#1065,#1066,#1067,
#1068,#1069,#1070,#1071,#1072,#1073,#1074,#1075,#1076,#1077,#1078,#1079,
#1080,#1081,#1082,#1083,#1084,#1085,#1086,#1087,#1088),.UNSPECIFIED.,.T.,
 .F.,(4,2,2,2,2,2,2,2,2,2,2,2,2,3,2,2,2,2,4),(5.90814912166975,7.2302860566622,
8.69520283221182,10.1601196077912,11.6250363834004,13.0899531590394,14.5548699347082,
16.0197867104067,17.4847034861351,18.9496202618932,20.4145370376811,21.8794538134988,
22.7557501598163,23.6320465058706,25.0498143709542,26.4675822360627,27.9324990115229,
29.397415787013,29.5401956275404),.UNSPECIFIED.);
#269=B_SPLINE_CURVE_WITH_KNOTS('',3,(#1091,#1092,#1093,#1094,#1095,#1096,
#1097,#1098,#1099,#1100,#1101,#1102,#1103,#1104,#1105,#1106,#1107,#1108,
#1109,#1110,#1111,#1112,#1113,#1114,#1115,#1116,#1117,#1118,#1119,#1120,
#1121,#1122,#1123,#1124,#1125,#1126,#1127,#1128,#1129),.UNSPECIFIED.,.T.,
 .F.,(4,2,2,2,2,2,2,2,2,2,2,2,2,3,2,2,2,2,4),(5.90814912166975,7.2302860566622,
8.69520283221182,10.1601196077912,11.6250363834004,13.0899531590394,14.5548699347082,
16.0197867104067,17.4847034861351,18.9496202618932,20.4145370376811,21.8794538134988,
22.7557501598163,23.6320465058706,25.0498143709542,26.4675822360627,27.9324990115229,
29.397415787013,29.5401956275404),.UNSPECIFIED.);
#270=B_SPLINE_CURVE_WITH_KNOTS('',3,(#1141,#1142,#1143,#1144,#1145,#1146,
#1147,#1148,#1149,#1150,#1151,#1152,#1153,#1154,#1155,#1156,#1157,#1158),
 .UNSPECIFIED.,.F.,.F.,(4,2,2,2,2,2,2,2,4),(0.,0.0565102773206692,0.113020554641338,
0.169529382339506,0.226038210037674,0.282547037735842,0.33905586543401,
0.395566142754679,0.452076420075348),.UNSPECIFIED.);
#271=B_SPLINE_CURVE_WITH_KNOTS('',3,(#1159,#1160,#1161,#1162,#1163,#1164,
#1165,#1166,#1167,#1168,#1169,#1170,#1171,#1172,#1173,#1174,#1175,#1176),
 .UNSPECIFIED.,.F.,.F.,(4,2,2,2,2,2,2,2,4),(0.452076420075348,0.508584193149069,
0.56509196622279,0.621600019791678,0.678108073360566,0.734616126929455,
0.791124180498344,0.847631953572064,0.904139726645785),.UNSPECIFIED.);
#272=B_SPLINE_CURVE_WITH_KNOTS('',3,(#1180,#1181,#1182,#1183,#1184,#1185,
#1186,#1187,#1188,#1189,#1190,#1191,#1192,#1193,#1194,#1195,#1196,#1197),
 .UNSPECIFIED.,.F.,.F.,(4,2,2,2,2,2,2,2,4),(0.,0.0565084910904069,0.113016982180814,
0.169525775255484,0.226034568330154,0.282543361404824,0.339052154479494,
0.395560645569901,0.452069136660308),.UNSPECIFIED.);
#273=B_SPLINE_CURVE_WITH_KNOTS('',3,(#1198,#1199,#1200,#1201,#1202,#1203,
#1204,#1205,#1206,#1207,#1208,#1209,#1210,#1211,#1212,#1213,#1214,#1215),
 .UNSPECIFIED.,.F.,.F.,(4,2,2,2,2,2,2,2,4),(0.452069136660308,0.50858029749799,
0.565091458335671,0.621601078761442,0.678110699187213,0.734620319612984,
0.791129940038755,0.847641100876436,0.904152261714117),.UNSPECIFIED.);
#274=B_SPLINE_CURVE_WITH_KNOTS('',3,(#1219,#1220,#1221,#1222,#1223,#1224,
#1225,#1226,#1227,#1228,#1229,#1230,#1231,#1232,#1233,#1234,#1235,#1236),
 .UNSPECIFIED.,.F.,.F.,(4,2,2,2,2,2,2,2,4),(0.,0.0565097504640854,0.113019500928171,
0.169528855484299,0.226038210040427,0.282547564596555,0.339056919152683,
0.395566669616768,0.452076420080853),.UNSPECIFIED.);
#275=B_SPLINE_CURVE_WITH_KNOTS('',3,(#1237,#1238,#1239,#1240,#1241,#1242,
#1243,#1244,#1245,#1246,#1247,#1248,#1249,#1250,#1251,#1252,#1253,#1254),
 .UNSPECIFIED.,.F.,.F.,(4,2,2,2,2,2,2,2,4),(0.452076420080853,0.508583714856928,
0.565091009633002,0.621599541498292,0.678108073363582,0.734616605228872,
0.791125137094162,0.847632431870236,0.90413972664631),.UNSPECIFIED.);
#276=B_SPLINE_CURVE_WITH_KNOTS('',3,(#1258,#1259,#1260,#1261,#1262,#1263,
#1264,#1265,#1266,#1267,#1268,#1269,#1270,#1271,#1272,#1273,#1274,#1275),
 .UNSPECIFIED.,.F.,.F.,(4,2,2,2,2,2,2,2,4),(0.,0.0565079792542732,0.113015958508546,
0.16952526341792,0.226034568327293,0.282543361401963,0.339052154476633,
0.39556064556704,0.452069136657446),.UNSPECIFIED.);
#277=B_SPLINE_CURVE_WITH_KNOTS('',3,(#1276,#1277,#1278,#1279,#1280,#1281,
#1282,#1283,#1284,#1285,#1286,#1287,#1288,#1289,#1290,#1291,#1292,#1293),
 .UNSPECIFIED.,.F.,.F.,(4,2,2,2,2,2,2,2,4),(0.452069136657446,0.508580297495127,
0.565091458332807,0.621601078758579,0.67811069918435,0.734620319610122,
0.791129940035893,0.847641100873574,0.904152261711254),.UNSPECIFIED.);
#278=B_SPLINE_CURVE_WITH_KNOTS('',3,(#1297,#1298,#1299,#1300,#1301,#1302,
#1303,#1304,#1305,#1306,#1307,#1308,#1309,#1310,#1311,#1312,#1313,#1314),
 .UNSPECIFIED.,.F.,.F.,(4,2,2,2,2,2,2,2,4),(0.,0.0565100800004155,0.113020160000831,
0.169527607724975,0.226035055449119,0.282545439590859,0.339055823732599,
0.395566289715872,0.452076755699145),.UNSPECIFIED.);
#279=B_SPLINE_CURVE_WITH_KNOTS('',3,(#1315,#1316,#1317,#1318,#1319,#1320,
#1321,#1322,#1323,#1324,#1325,#1326,#1327,#1328,#1329,#1330,#1331,#1332),
 .UNSPECIFIED.,.F.,.F.,(4,2,2,2,2,2,2,2,4),(0.452076755699145,0.508585114177457,
0.565093472655769,0.621602480719654,0.678111488783539,0.734618720430002,
0.791125952076465,0.847633174968955,0.904140397861445),.UNSPECIFIED.);
#280=B_SPLINE_CURVE_WITH_KNOTS('',3,(#1336,#1337,#1338,#1339,#1340,#1341,
#1342,#1343,#1344,#1345,#1346,#1347,#1348,#1349,#1350,#1351,#1352,#1353),
 .UNSPECIFIED.,.F.,.F.,(4,2,2,2,2,2,2,2,4),(0.,0.0565078612933915,0.113015722586783,
0.169523576772423,0.226031430958064,0.282541313782235,0.339051196606407,
0.39556035759967,0.452069518592934),.UNSPECIFIED.);
#281=B_SPLINE_CURVE_WITH_KNOTS('',3,(#1354,#1355,#1356,#1357,#1358,#1359,
#1360,#1361,#1362,#1363,#1364,#1365,#1366,#1367,#1368,#1369,#1370,#1371),
 .UNSPECIFIED.,.F.,.F.,(4,2,2,2,2,2,2,2,4),(0.452069518592934,0.508580890612789,
0.565092262632644,0.621603650443007,0.678115038253369,0.73462309211147,
0.791131145969572,0.847642085793662,0.904153025617752),.UNSPECIFIED.);
#282=VERTEX_POINT('',#876);
#283=VERTEX_POINT('',#916);
#284=VERTEX_POINT('',#964);
#285=VERTEX_POINT('',#966);
#286=VERTEX_POINT('',#1049);
#287=VERTEX_POINT('',#1089);
#288=VERTEX_POINT('',#1131);
#289=VERTEX_POINT('',#1133);
#290=VERTEX_POINT('',#1139);
#291=VERTEX_POINT('',#1140);
#292=VERTEX_POINT('',#1177);
#293=VERTEX_POINT('',#1179);
#294=VERTEX_POINT('',#1217);
#295=VERTEX_POINT('',#1218);
#296=VERTEX_POINT('',#1255);
#297=VERTEX_POINT('',#1257);
#298=VERTEX_POINT('',#1295);
#299=VERTEX_POINT('',#1296);
#300=VERTEX_POINT('',#1333);
#301=VERTEX_POINT('',#1335);
#302=VERTEX_POINT('',#1373);
#303=VERTEX_POINT('',#1375);
#304=VERTEX_POINT('',#1379);
#305=VERTEX_POINT('',#1381);
#306=VERTEX_POINT('',#1387);
#307=VERTEX_POINT('',#1389);
#308=VERTEX_POINT('',#1393);
#309=VERTEX_POINT('',#1395);
#310=VERTEX_POINT('',#1399);
#311=VERTEX_POINT('',#1401);
#312=VERTEX_POINT('',#1405);
#313=VERTEX_POINT('',#1407);
#314=VERTEX_POINT('',#1411);
#315=VERTEX_POINT('',#1413);
#316=VERTEX_POINT('',#1417);
#317=VERTEX_POINT('',#1419);
#318=VERTEX_POINT('',#1423);
#319=VERTEX_POINT('',#1425);
#320=VERTEX_POINT('',#1431);
#321=VERTEX_POINT('',#1433);
#322=VERTEX_POINT('',#1437);
#323=VERTEX_POINT('',#1439);
#324=VERTEX_POINT('',#1443);
#325=VERTEX_POINT('',#1445);
#326=VERTEX_POINT('',#1449);
#327=VERTEX_POINT('',#1450);
#328=VERTEX_POINT('',#1452);
#329=VERTEX_POINT('',#1454);
#330=VERTEX_POINT('',#1458);
#331=VERTEX_POINT('',#1460);
#332=VERTEX_POINT('',#1464);
#333=VERTEX_POINT('',#1466);
#334=EDGE_CURVE('',#282,#282,#267,.T.);
#335=EDGE_CURVE('',#283,#282,#234,.T.);
#336=EDGE_CURVE('',#283,#283,#235,.T.);
#337=EDGE_CURVE('',#284,#284,#236,.T.);
#338=EDGE_CURVE('',#284,#285,#237,.T.);
#339=EDGE_CURVE('',#285,#285,#238,.T.);
#340=EDGE_CURVE('',#286,#286,#268,.T.);
#341=EDGE_CURVE('',#286,#287,#30,.T.);
#342=EDGE_CURVE('',#287,#287,#269,.T.);
#343=EDGE_CURVE('',#288,#288,#239,.T.);
#344=EDGE_CURVE('',#288,#289,#31,.T.);
#345=EDGE_CURVE('',#289,#289,#240,.T.);
#346=EDGE_CURVE('',#290,#291,#270,.T.);
#347=EDGE_CURVE('',#291,#290,#271,.T.);
#348=EDGE_CURVE('',#291,#292,#32,.T.);
#349=EDGE_CURVE('',#293,#292,#272,.T.);
#350=EDGE_CURVE('',#292,#293,#273,.T.);
#351=EDGE_CURVE('',#294,#295,#274,.T.);
#352=EDGE_CURVE('',#295,#294,#275,.T.);
#353=EDGE_CURVE('',#295,#296,#33,.T.);
#354=EDGE_CURVE('',#297,#296,#276,.T.);
#355=EDGE_CURVE('',#296,#297,#277,.T.);
#356=EDGE_CURVE('',#298,#299,#278,.T.);
#357=EDGE_CURVE('',#299,#298,#279,.T.);
#358=EDGE_CURVE('',#299,#300,#34,.T.);
#359=EDGE_CURVE('',#301,#300,#280,.T.);
#360=EDGE_CURVE('',#300,#301,#281,.T.);
#361=EDGE_CURVE('',#302,#302,#241,.T.);
#362=EDGE_CURVE('',#302,#303,#35,.T.);
#363=EDGE_CURVE('',#303,#303,#242,.T.);
#364=EDGE_CURVE('',#304,#304,#243,.T.);
#365=EDGE_CURVE('',#304,#305,#36,.T.);
#366=EDGE_CURVE('',#305,#305,#244,.T.);
#367=EDGE_CURVE('',#306,#306,#245,.T.);
#368=EDGE_CURVE('',#306,#307,#37,.T.);
#369=EDGE_CURVE('',#307,#307,#246,.T.);
#370=EDGE_CURVE('',#308,#308,#247,.T.);
#371=EDGE_CURVE('',#308,#309,#38,.T.);
#372=EDGE_CURVE('',#309,#309,#248,.T.);
#373=EDGE_CURVE('',#310,#310,#249,.T.);
#374=EDGE_CURVE('',#310,#311,#39,.T.);
#375=EDGE_CURVE('',#311,#311,#250,.T.);
#376=EDGE_CURVE('',#312,#312,#251,.T.);
#377=EDGE_CURVE('',#312,#313,#40,.T.);
#378=EDGE_CURVE('',#313,#313,#252,.T.);
#379=EDGE_CURVE('',#314,#314,#253,.T.);
#380=EDGE_CURVE('',#314,#315,#41,.T.);
#381=EDGE_CURVE('',#315,#315,#254,.T.);
#382=EDGE_CURVE('',#316,#316,#255,.T.);
#383=EDGE_CURVE('',#316,#317,#42,.T.);
#384=EDGE_CURVE('',#317,#317,#256,.T.);
#385=EDGE_CURVE('',#318,#318,#257,.T.);
#386=EDGE_CURVE('',#318,#319,#43,.T.);
#387=EDGE_CURVE('',#319,#319,#258,.T.);
#388=EDGE_CURVE('',#320,#320,#259,.T.);
#389=EDGE_CURVE('',#320,#321,#44,.T.);
#390=EDGE_CURVE('',#321,#321,#260,.T.);
#391=EDGE_CURVE('',#322,#322,#261,.T.);
#392=EDGE_CURVE('',#322,#323,#45,.T.);
#393=EDGE_CURVE('',#323,#323,#262,.T.);
#394=EDGE_CURVE('',#324,#324,#263,.T.);
#395=EDGE_CURVE('',#324,#325,#46,.T.);
#396=EDGE_CURVE('',#325,#325,#264,.T.);
#397=EDGE_CURVE('',#326,#327,#47,.T.);
#398=EDGE_CURVE('',#326,#328,#48,.T.);
#399=EDGE_CURVE('',#329,#328,#49,.T.);
#400=EDGE_CURVE('',#327,#329,#50,.T.);
#401=EDGE_CURVE('',#327,#330,#51,.T.);
#402=EDGE_CURVE('',#331,#329,#52,.T.);
#403=EDGE_CURVE('',#330,#331,#53,.T.);
#404=EDGE_CURVE('',#332,#330,#265,.T.);
#405=EDGE_CURVE('',#333,#331,#266,.T.);
#406=EDGE_CURVE('',#332,#333,#54,.T.);
#407=EDGE_CURVE('',#332,#326,#55,.T.);
#408=EDGE_CURVE('',#328,#333,#56,.T.);
#409=ORIENTED_EDGE('',*,*,#334,.F.);
#410=ORIENTED_EDGE('',*,*,#335,.F.);
#411=ORIENTED_EDGE('',*,*,#336,.F.);
#412=ORIENTED_EDGE('',*,*,#335,.T.);
#413=ORIENTED_EDGE('',*,*,#337,.T.);
#414=ORIENTED_EDGE('',*,*,#338,.T.);
#415=ORIENTED_EDGE('',*,*,#339,.F.);
#416=ORIENTED_EDGE('',*,*,#338,.F.);
#417=ORIENTED_EDGE('',*,*,#339,.T.);
#418=ORIENTED_EDGE('',*,*,#334,.T.);
#419=ORIENTED_EDGE('',*,*,#337,.F.);
#420=ORIENTED_EDGE('',*,*,#336,.T.);
#421=ORIENTED_EDGE('',*,*,#340,.T.);
#422=ORIENTED_EDGE('',*,*,#341,.T.);
#423=ORIENTED_EDGE('',*,*,#342,.F.);
#424=ORIENTED_EDGE('',*,*,#341,.F.);
#425=ORIENTED_EDGE('',*,*,#343,.F.);
#426=ORIENTED_EDGE('',*,*,#344,.T.);
#427=ORIENTED_EDGE('',*,*,#345,.T.);
#428=ORIENTED_EDGE('',*,*,#344,.F.);
#429=ORIENTED_EDGE('',*,*,#343,.T.);
#430=ORIENTED_EDGE('',*,*,#342,.T.);
#431=ORIENTED_EDGE('',*,*,#345,.F.);
#432=ORIENTED_EDGE('',*,*,#340,.F.);
#433=ORIENTED_EDGE('',*,*,#346,.F.);
#434=ORIENTED_EDGE('',*,*,#347,.F.);
#435=ORIENTED_EDGE('',*,*,#348,.T.);
#436=ORIENTED_EDGE('',*,*,#349,.F.);
#437=ORIENTED_EDGE('',*,*,#350,.F.);
#438=ORIENTED_EDGE('',*,*,#348,.F.);
#439=ORIENTED_EDGE('',*,*,#351,.F.);
#440=ORIENTED_EDGE('',*,*,#352,.F.);
#441=ORIENTED_EDGE('',*,*,#353,.T.);
#442=ORIENTED_EDGE('',*,*,#354,.F.);
#443=ORIENTED_EDGE('',*,*,#355,.F.);
#444=ORIENTED_EDGE('',*,*,#353,.F.);
#445=ORIENTED_EDGE('',*,*,#356,.F.);
#446=ORIENTED_EDGE('',*,*,#357,.F.);
#447=ORIENTED_EDGE('',*,*,#358,.T.);
#448=ORIENTED_EDGE('',*,*,#359,.F.);
#449=ORIENTED_EDGE('',*,*,#360,.F.);
#450=ORIENTED_EDGE('',*,*,#358,.F.);
#451=ORIENTED_EDGE('',*,*,#361,.F.);
#452=ORIENTED_EDGE('',*,*,#362,.T.);
#453=ORIENTED_EDGE('',*,*,#363,.T.);
#454=ORIENTED_EDGE('',*,*,#362,.F.);
#455=ORIENTED_EDGE('',*,*,#349,.T.);
#456=ORIENTED_EDGE('',*,*,#350,.T.);
#457=ORIENTED_EDGE('',*,*,#354,.T.);
#458=ORIENTED_EDGE('',*,*,#355,.T.);
#459=ORIENTED_EDGE('',*,*,#359,.T.);
#460=ORIENTED_EDGE('',*,*,#360,.T.);
#461=ORIENTED_EDGE('',*,*,#364,.F.);
#462=ORIENTED_EDGE('',*,*,#365,.T.);
#463=ORIENTED_EDGE('',*,*,#366,.F.);
#464=ORIENTED_EDGE('',*,*,#365,.F.);
#465=ORIENTED_EDGE('',*,*,#346,.T.);
#466=ORIENTED_EDGE('',*,*,#347,.T.);
#467=ORIENTED_EDGE('',*,*,#351,.T.);
#468=ORIENTED_EDGE('',*,*,#352,.T.);
#469=ORIENTED_EDGE('',*,*,#356,.T.);
#470=ORIENTED_EDGE('',*,*,#357,.T.);
#471=ORIENTED_EDGE('',*,*,#364,.T.);
#472=ORIENTED_EDGE('',*,*,#361,.T.);
#473=ORIENTED_EDGE('',*,*,#366,.T.);
#474=ORIENTED_EDGE('',*,*,#363,.F.);
#475=ORIENTED_EDGE('',*,*,#367,.F.);
#476=ORIENTED_EDGE('',*,*,#368,.T.);
#477=ORIENTED_EDGE('',*,*,#369,.F.);
#478=ORIENTED_EDGE('',*,*,#368,.F.);
#479=ORIENTED_EDGE('',*,*,#370,.F.);
#480=ORIENTED_EDGE('',*,*,#371,.T.);
#481=ORIENTED_EDGE('',*,*,#372,.F.);
#482=ORIENTED_EDGE('',*,*,#371,.F.);
#483=ORIENTED_EDGE('',*,*,#373,.F.);
#484=ORIENTED_EDGE('',*,*,#374,.T.);
#485=ORIENTED_EDGE('',*,*,#375,.F.);
#486=ORIENTED_EDGE('',*,*,#374,.F.);
#487=ORIENTED_EDGE('',*,*,#376,.F.);
#488=ORIENTED_EDGE('',*,*,#377,.T.);
#489=ORIENTED_EDGE('',*,*,#378,.F.);
#490=ORIENTED_EDGE('',*,*,#377,.F.);
#491=ORIENTED_EDGE('',*,*,#379,.F.);
#492=ORIENTED_EDGE('',*,*,#380,.T.);
#493=ORIENTED_EDGE('',*,*,#381,.F.);
#494=ORIENTED_EDGE('',*,*,#380,.F.);
#495=ORIENTED_EDGE('',*,*,#382,.F.);
#496=ORIENTED_EDGE('',*,*,#383,.T.);
#497=ORIENTED_EDGE('',*,*,#384,.F.);
#498=ORIENTED_EDGE('',*,*,#383,.F.);
#499=ORIENTED_EDGE('',*,*,#385,.F.);
#500=ORIENTED_EDGE('',*,*,#386,.T.);
#501=ORIENTED_EDGE('',*,*,#387,.F.);
#502=ORIENTED_EDGE('',*,*,#386,.F.);
#503=ORIENTED_EDGE('',*,*,#387,.T.);
#504=ORIENTED_EDGE('',*,*,#367,.T.);
#505=ORIENTED_EDGE('',*,*,#370,.T.);
#506=ORIENTED_EDGE('',*,*,#373,.T.);
#507=ORIENTED_EDGE('',*,*,#376,.T.);
#508=ORIENTED_EDGE('',*,*,#379,.T.);
#509=ORIENTED_EDGE('',*,*,#384,.T.);
#510=ORIENTED_EDGE('',*,*,#385,.T.);
#511=ORIENTED_EDGE('',*,*,#369,.T.);
#512=ORIENTED_EDGE('',*,*,#372,.T.);
#513=ORIENTED_EDGE('',*,*,#375,.T.);
#514=ORIENTED_EDGE('',*,*,#378,.T.);
#515=ORIENTED_EDGE('',*,*,#381,.T.);
#516=ORIENTED_EDGE('',*,*,#382,.T.);
#517=ORIENTED_EDGE('',*,*,#388,.F.);
#518=ORIENTED_EDGE('',*,*,#389,.T.);
#519=ORIENTED_EDGE('',*,*,#390,.F.);
#520=ORIENTED_EDGE('',*,*,#389,.F.);
#521=ORIENTED_EDGE('',*,*,#391,.F.);
#522=ORIENTED_EDGE('',*,*,#392,.T.);
#523=ORIENTED_EDGE('',*,*,#393,.F.);
#524=ORIENTED_EDGE('',*,*,#392,.F.);
#525=ORIENTED_EDGE('',*,*,#394,.F.);
#526=ORIENTED_EDGE('',*,*,#395,.T.);
#527=ORIENTED_EDGE('',*,*,#396,.F.);
#528=ORIENTED_EDGE('',*,*,#395,.F.);
#529=ORIENTED_EDGE('',*,*,#397,.F.);
#530=ORIENTED_EDGE('',*,*,#398,.T.);
#531=ORIENTED_EDGE('',*,*,#399,.F.);
#532=ORIENTED_EDGE('',*,*,#400,.F.);
#533=ORIENTED_EDGE('',*,*,#401,.F.);
#534=ORIENTED_EDGE('',*,*,#400,.T.);
#535=ORIENTED_EDGE('',*,*,#402,.F.);
#536=ORIENTED_EDGE('',*,*,#403,.F.);
#537=ORIENTED_EDGE('',*,*,#404,.T.);
#538=ORIENTED_EDGE('',*,*,#403,.T.);
#539=ORIENTED_EDGE('',*,*,#405,.F.);
#540=ORIENTED_EDGE('',*,*,#406,.F.);
#541=ORIENTED_EDGE('',*,*,#407,.F.);
#542=ORIENTED_EDGE('',*,*,#406,.T.);
#543=ORIENTED_EDGE('',*,*,#408,.F.);
#544=ORIENTED_EDGE('',*,*,#398,.F.);
#545=ORIENTED_EDGE('',*,*,#407,.T.);
#546=ORIENTED_EDGE('',*,*,#397,.T.);
#547=ORIENTED_EDGE('',*,*,#401,.T.);
#548=ORIENTED_EDGE('',*,*,#404,.F.);
#549=ORIENTED_EDGE('',*,*,#388,.T.);
#550=ORIENTED_EDGE('',*,*,#391,.T.);
#551=ORIENTED_EDGE('',*,*,#394,.T.);
#552=ORIENTED_EDGE('',*,*,#408,.T.);
#553=ORIENTED_EDGE('',*,*,#405,.T.);
#554=ORIENTED_EDGE('',*,*,#402,.T.);
#555=ORIENTED_EDGE('',*,*,#399,.T.);
#556=ORIENTED_EDGE('',*,*,#390,.T.);
#557=ORIENTED_EDGE('',*,*,#393,.T.);
#558=ORIENTED_EDGE('',*,*,#396,.T.);
#559=(
BOUNDED_SURFACE()
B_SPLINE_SURFACE(2,2,((#831,#832,#833,#834,#835),(#836,#837,#838,#839,#840),
(#841,#842,#843,#844,#845),(#846,#847,#848,#849,#850),(#851,#852,#853,#854,
#855),(#856,#857,#858,#859,#860),(#861,#862,#863,#864,#865),(#866,#867,
#868,#869,#870),(#871,#872,#873,#874,#875)),.UNSPECIFIED.,.T.,.F.,.F.)
B_SPLINE_SURFACE_WITH_KNOTS((3,2,2,2,3),(3,2,3),(-3.14159265358979,-1.5707963267949,
0.,1.5707963267949,3.14159265358979),(0.,0.873671336495653,1.74734267299131),
 .UNSPECIFIED.)
GEOMETRIC_REPRESENTATION_ITEM()
RATIONAL_B_SPLINE_SURFACE(((1.,0.906094945111143,1.,0.906094945111143,1.),
(0.707106781186547,0.640705880086941,0.707106781186547,0.640705880086941,
0.707106781186547),(1.,0.906094945111143,1.,0.906094945111143,1.),(0.707106781186548,
0.640705880086942,0.707106781186548,0.640705880086942,0.707106781186548),
(1.,0.906094945111143,1.,0.906094945111143,1.),(0.707106781186548,0.640705880086942,
0.707106781186548,0.640705880086942,0.707106781186548),(1.,0.906094945111143,
1.,0.906094945111143,1.),(0.707106781186547,0.640705880086941,0.707106781186547,
0.640705880086941,0.707106781186547),(1.,0.906094945111143,1.,0.906094945111143,
1.)))
REPRESENTATION_ITEM('')
SURFACE()
);
#560=(
BOUNDED_SURFACE()
B_SPLINE_SURFACE(2,2,((#919,#920,#921,#922,#923),(#924,#925,#926,#927,#928),
(#929,#930,#931,#932,#933),(#934,#935,#936,#937,#938),(#939,#940,#941,#942,
#943),(#944,#945,#946,#947,#948),(#949,#950,#951,#952,#953),(#954,#955,
#956,#957,#958),(#959,#960,#961,#962,#963)),.UNSPECIFIED.,.T.,.F.,.F.)
B_SPLINE_SURFACE_WITH_KNOTS((3,2,2,2,3),(3,2,3),(-3.14159265358979,-1.5707963267949,
0.,1.5707963267949,3.14159265358979),(0.,0.786304202846088,1.57260840569218),
 .UNSPECIFIED.)
GEOMETRIC_REPRESENTATION_ITEM()
RATIONAL_B_SPLINE_SURFACE(((1.,0.923706074571734,1.,0.923706074571734,1.),
(0.707106781186548,0.65315882915288,0.707106781186548,0.65315882915288,
0.707106781186548),(1.,0.923706074571734,1.,0.923706074571734,1.),(0.707106781186548,
0.65315882915288,0.707106781186548,0.65315882915288,0.707106781186548),
(1.,0.923706074571734,1.,0.923706074571734,1.),(0.707106781186548,0.65315882915288,
0.707106781186548,0.65315882915288,0.707106781186548),(1.,0.923706074571734,
1.,0.923706074571734,1.),(0.707106781186548,0.65315882915288,0.707106781186548,
0.65315882915288,0.707106781186548),(1.,0.923706074571734,1.,0.923706074571734,
1.)))
REPRESENTATION_ITEM('')
SURFACE()
);
#561=ADVANCED_FACE('',(#138),#559,.F.);
#562=ADVANCED_FACE('',(#139),#560,.T.);
#563=ADVANCED_FACE('',(#140,#95),#125,.F.);
#564=ADVANCED_FACE('',(#141,#96),#126,.T.);
#565=ADVANCED_FACE('',(#142),#84,.T.);
#566=ADVANCED_FACE('',(#143),#13,.T.);
#567=ADVANCED_FACE('',(#144,#97),#127,.F.);
#568=ADVANCED_FACE('',(#145,#98),#128,.T.);
#569=ADVANCED_FACE('',(#146),#14,.F.);
#570=ADVANCED_FACE('',(#147),#15,.F.);
#571=ADVANCED_FACE('',(#148),#16,.F.);
#572=ADVANCED_FACE('',(#149,#99,#100,#101),#17,.F.);
#573=ADVANCED_FACE('',(#150,#102,#103,#104),#18,.T.);
#574=ADVANCED_FACE('',(#151,#105),#129,.T.);
#575=ADVANCED_FACE('',(#152,#106),#130,.F.);
#576=ADVANCED_FACE('',(#153),#19,.F.);
#577=ADVANCED_FACE('',(#154),#20,.F.);
#578=ADVANCED_FACE('',(#155),#21,.F.);
#579=ADVANCED_FACE('',(#156),#22,.F.);
#580=ADVANCED_FACE('',(#157),#23,.F.);
#581=ADVANCED_FACE('',(#158),#24,.F.);
#582=ADVANCED_FACE('',(#159),#25,.T.);
#583=ADVANCED_FACE('',(#160,#107,#108,#109,#110,#111,#112),#131,.T.);
#584=ADVANCED_FACE('',(#161,#113,#114,#115,#116,#117,#118),#132,.F.);
#585=ADVANCED_FACE('',(#162),#26,.F.);
#586=ADVANCED_FACE('',(#163),#27,.F.);
#587=ADVANCED_FACE('',(#164),#28,.F.);
#588=ADVANCED_FACE('',(#165),#133,.T.);
#589=ADVANCED_FACE('',(#166),#134,.T.);
#590=ADVANCED_FACE('',(#167),#29,.F.);
#591=ADVANCED_FACE('',(#168),#135,.T.);
#592=ADVANCED_FACE('',(#169,#119,#120,#121),#136,.T.);
#593=ADVANCED_FACE('',(#170,#122,#123,#124),#137,.F.);
#594=CLOSED_SHELL('',(#561,#562,#563,#564));
#595=CLOSED_SHELL('',(#565,#566,#567,#568));
#596=CLOSED_SHELL('',(#569,#570,#571,#572,#573,#574,#575));
#597=CLOSED_SHELL('',(#576,#577,#578,#579,#580,#581,#582,#583,#584));
#598=CLOSED_SHELL('',(#585,#586,#587,#588,#589,#590,#591,#592,#593));
#599=DERIVED_UNIT_ELEMENT(#601,1.);
#600=DERIVED_UNIT_ELEMENT(#1479,-3.);
#601=(
MASS_UNIT()
NAMED_UNIT(*)
SI_UNIT(.KILO.,.GRAM.)
);
#602=DERIVED_UNIT((#599,#600));
#603=MEASURE_REPRESENTATION_ITEM('density measure',
POSITIVE_RATIO_MEASURE(7850.),#602);
#604=PROPERTY_DEFINITION_REPRESENTATION(#609,#606);
#605=PROPERTY_DEFINITION_REPRESENTATION(#610,#607);
#606=REPRESENTATION('material name',(#608),#1476);
#607=REPRESENTATION('density',(#603),#1476);
#608=DESCRIPTIVE_REPRESENTATION_ITEM('Stahl','Stahl');
#609=PROPERTY_DEFINITION('material property','material name',#1486);
#610=PROPERTY_DEFINITION('material property','density of part',#1486);
#611=AXIS2_PLACEMENT_3D('',#830,#675,#676);
#612=AXIS2_PLACEMENT_3D('',#917,#677,#678);
#613=AXIS2_PLACEMENT_3D('',#918,#679,#680);
#614=AXIS2_PLACEMENT_3D('',#965,#681,#682);
#615=AXIS2_PLACEMENT_3D('',#967,#683,#684);
#616=AXIS2_PLACEMENT_3D('',#968,#685,#686);
#617=AXIS2_PLACEMENT_3D('',#969,#687,#688);
#618=AXIS2_PLACEMENT_3D('',#970,#689,#690);
#619=AXIS2_PLACEMENT_3D('',#1130,#692,#693);
#620=AXIS2_PLACEMENT_3D('',#1132,#694,#695);
#621=AXIS2_PLACEMENT_3D('',#1135,#697,#698);
#622=AXIS2_PLACEMENT_3D('',#1136,#699,#700);
#623=AXIS2_PLACEMENT_3D('',#1137,#701,#702);
#624=AXIS2_PLACEMENT_3D('',#1138,#703,#704);
#625=AXIS2_PLACEMENT_3D('',#1216,#706,#707);
#626=AXIS2_PLACEMENT_3D('',#1294,#709,#710);
#627=AXIS2_PLACEMENT_3D('',#1372,#712,#713);
#628=AXIS2_PLACEMENT_3D('',#1374,#714,#715);
#629=AXIS2_PLACEMENT_3D('',#1377,#717,#718);
#630=AXIS2_PLACEMENT_3D('',#1378,#719,#720);
#631=AXIS2_PLACEMENT_3D('',#1380,#721,#722);
#632=AXIS2_PLACEMENT_3D('',#1383,#724,#725);
#633=AXIS2_PLACEMENT_3D('',#1384,#726,#727);
#634=AXIS2_PLACEMENT_3D('',#1385,#728,#729);
#635=AXIS2_PLACEMENT_3D('',#1386,#730,#731);
#636=AXIS2_PLACEMENT_3D('',#1388,#732,#733);
#637=AXIS2_PLACEMENT_3D('',#1391,#735,#736);
#638=AXIS2_PLACEMENT_3D('',#1392,#737,#738);
#639=AXIS2_PLACEMENT_3D('',#1394,#739,#740);
#640=AXIS2_PLACEMENT_3D('',#1397,#742,#743);
#641=AXIS2_PLACEMENT_3D('',#1398,#744,#745);
#642=AXIS2_PLACEMENT_3D('',#1400,#746,#747);
#643=AXIS2_PLACEMENT_3D('',#1403,#749,#750);
#644=AXIS2_PLACEMENT_3D('',#1404,#751,#752);
#645=AXIS2_PLACEMENT_3D('',#1406,#753,#754);
#646=AXIS2_PLACEMENT_3D('',#1409,#756,#757);
#647=AXIS2_PLACEMENT_3D('',#1410,#758,#759);
#648=AXIS2_PLACEMENT_3D('',#1412,#760,#761);
#649=AXIS2_PLACEMENT_3D('',#1415,#763,#764);
#650=AXIS2_PLACEMENT_3D('',#1416,#765,#766);
#651=AXIS2_PLACEMENT_3D('',#1418,#767,#768);
#652=AXIS2_PLACEMENT_3D('',#1421,#770,#771);
#653=AXIS2_PLACEMENT_3D('',#1422,#772,#773);
#654=AXIS2_PLACEMENT_3D('',#1424,#774,#775);
#655=AXIS2_PLACEMENT_3D('',#1427,#777,#778);
#656=AXIS2_PLACEMENT_3D('',#1428,#779,#780);
#657=AXIS2_PLACEMENT_3D('',#1429,#781,#782);
#658=AXIS2_PLACEMENT_3D('',#1430,#783,#784);
#659=AXIS2_PLACEMENT_3D('',#1432,#785,#786);
#660=AXIS2_PLACEMENT_3D('',#1435,#788,#789);
#661=AXIS2_PLACEMENT_3D('',#1436,#790,#791);
#662=AXIS2_PLACEMENT_3D('',#1438,#792,#793);
#663=AXIS2_PLACEMENT_3D('',#1441,#795,#796);
#664=AXIS2_PLACEMENT_3D('',#1442,#797,#798);
#665=AXIS2_PLACEMENT_3D('',#1444,#799,#800);
#666=AXIS2_PLACEMENT_3D('',#1447,#802,#803);
#667=AXIS2_PLACEMENT_3D('',#1448,#804,#805);
#668=AXIS2_PLACEMENT_3D('',#1457,#810,#811);
#669=AXIS2_PLACEMENT_3D('',#1463,#815,#816);
#670=AXIS2_PLACEMENT_3D('',#1465,#817,#818);
#671=AXIS2_PLACEMENT_3D('',#1467,#819,#820);
#672=AXIS2_PLACEMENT_3D('',#1469,#822,#823);
#673=AXIS2_PLACEMENT_3D('',#1472,#826,#827);
#674=AXIS2_PLACEMENT_3D('',#1473,#828,#829);
#675=DIRECTION('axis',(0.,0.,1.));
#676=DIRECTION('refdir',(1.,0.,0.));
#677=DIRECTION('center_axis',(0.,1.,0.));
#678=DIRECTION('ref_axis',(0.146499834248988,0.,-0.989210694728388));
#679=DIRECTION('center_axis',(-1.,0.,0.));
#680=DIRECTION('ref_axis',(0.,1.,0.));
#681=DIRECTION('center_axis',(-1.,0.,-2.22044604925031E-16));
#682=DIRECTION('ref_axis',(-2.22044604925031E-16,0.,1.));
#683=DIRECTION('center_axis',(0.,1.,0.));
#684=DIRECTION('ref_axis',(0.0727670456181368,0.,-0.997348964541503));
#685=DIRECTION('center_axis',(0.0018120779055795,0.,0.999998358185484));
#686=DIRECTION('ref_axis',(0.999998358185484,0.,-0.0018120779055795));
#687=DIRECTION('center_axis',(-0.00181207790557972,0.,-0.999998358185484));
#688=DIRECTION('ref_axis',(-0.999998358185484,0.,0.00181207790557972));
#689=DIRECTION('center_axis',(1.,0.,0.));
#690=DIRECTION('ref_axis',(0.,0.,-1.));
#691=DIRECTION('',(0.00181207790557972,0.,0.999998358185484));
#692=DIRECTION('center_axis',(0.00181207790557972,0.,0.999998358185484));
#693=DIRECTION('ref_axis',(0.999998358185484,0.,-0.00181207790557972));
#694=DIRECTION('center_axis',(0.0018120779055795,0.,0.999998358185484));
#695=DIRECTION('ref_axis',(0.999998358185484,0.,-0.0018120779055795));
#696=DIRECTION('',(-0.00181207790557972,0.,-0.999998358185484));
#697=DIRECTION('center_axis',(0.0018120779055795,0.,0.999998358185484));
#698=DIRECTION('ref_axis',(0.999998358185484,0.,-0.0018120779055795));
#699=DIRECTION('center_axis',(-0.00181207790557972,0.,-0.999998358185484));
#700=DIRECTION('ref_axis',(-0.999998358185484,0.,0.00181207790557972));
#701=DIRECTION('center_axis',(-0.00181207790557972,0.,-0.999998358185484));
#702=DIRECTION('ref_axis',(-0.999998358185484,0.,0.00181207790557972));
#703=DIRECTION('center_axis',(-0.00181207790557991,0.,-0.999998358185484));
#704=DIRECTION('ref_axis',(0.,1.,0.));
#705=DIRECTION('',(-0.00181207790557991,0.,-0.999998358185484));
#706=DIRECTION('center_axis',(-0.00181207790557991,0.,-0.999998358185484));
#707=DIRECTION('ref_axis',(0.,1.,0.));
#708=DIRECTION('',(-0.00181207790557991,0.,-0.999998358185484));
#709=DIRECTION('center_axis',(-0.00181207790557991,0.,-0.999998358185484));
#710=DIRECTION('ref_axis',(0.,1.,0.));
#711=DIRECTION('',(-0.00181207790557991,0.,-0.999998358185484));
#712=DIRECTION('center_axis',(1.,0.,0.));
#713=DIRECTION('ref_axis',(0.,1.,0.));
#714=DIRECTION('center_axis',(-1.,0.,0.));
#715=DIRECTION('ref_axis',(0.,1.,0.));
#716=DIRECTION('',(-1.,0.,0.));
#717=DIRECTION('center_axis',(-1.,0.,0.));
#718=DIRECTION('ref_axis',(0.,1.,0.));
#719=DIRECTION('center_axis',(1.,0.,0.));
#720=DIRECTION('ref_axis',(0.,0.,1.));
#721=DIRECTION('center_axis',(1.,0.,2.22044604925031E-16));
#722=DIRECTION('ref_axis',(-2.22044604925031E-16,0.,1.));
#723=DIRECTION('',(-1.,0.,0.));
#724=DIRECTION('center_axis',(-1.,0.,-2.22044604925031E-16));
#725=DIRECTION('ref_axis',(-2.22044604925031E-16,0.,1.));
#726=DIRECTION('center_axis',(1.,0.,0.));
#727=DIRECTION('ref_axis',(0.,0.,-1.));
#728=DIRECTION('center_axis',(1.,0.,0.));
#729=DIRECTION('ref_axis',(0.,0.,-1.));
#730=DIRECTION('center_axis',(-0.00181207790555949,2.78442633533382E-14,
-0.999998358185484));
#731=DIRECTION('ref_axis',(0.95105495483676,0.309016994374947,-0.00172338850010822));
#732=DIRECTION('center_axis',(-0.00181207790555044,0.,-0.999998358185484));
#733=DIRECTION('ref_axis',(0.95105495483676,0.309016994374947,-0.00172338850010822));
#734=DIRECTION('',(-0.00181207790555949,2.78442633533382E-14,-0.999998358185484));
#735=DIRECTION('center_axis',(0.00181207790555044,0.,0.999998358185484));
#736=DIRECTION('ref_axis',(0.95105495483676,0.309016994374947,-0.00172338850010822));
#737=DIRECTION('center_axis',(-0.00181207790552675,1.72091074029934E-14,
-0.999998358185484));
#738=DIRECTION('ref_axis',(0.587784287258114,-0.809016994374947,-0.00106511266888758));
#739=DIRECTION('center_axis',(-0.00181207790555044,0.,-0.999998358185484));
#740=DIRECTION('ref_axis',(0.587784287258114,-0.809016994374947,-0.00106511266888758));
#741=DIRECTION('',(-0.00181207790552675,1.72091074029934E-14,-0.999998358185484));
#742=DIRECTION('center_axis',(0.00181207790555044,0.,0.999998358185484));
#743=DIRECTION('ref_axis',(0.587784287258114,-0.809016994374947,-0.00106511266888758));
#744=DIRECTION('center_axis',(-0.00181207790552675,-1.72093242434279E-14,
-0.999998358185485));
#745=DIRECTION('ref_axis',(-0.587784287258114,-0.809016994374947,0.00106511266888758));
#746=DIRECTION('center_axis',(-0.00181207790555044,0.,-0.999998358185484));
#747=DIRECTION('ref_axis',(-0.587784287258114,-0.809016994374947,0.00106511266888758));
#748=DIRECTION('',(-0.00181207790552675,-1.72093242434279E-14,-0.999998358185484));
#749=DIRECTION('center_axis',(0.00181207790555044,0.,0.999998358185484));
#750=DIRECTION('ref_axis',(-0.587784287258114,-0.809016994374947,0.00106511266888758));
#751=DIRECTION('center_axis',(-0.00181207790555949,-2.78446970342072E-14,
-0.999998358185484));
#752=DIRECTION('ref_axis',(-0.95105495483676,0.309016994374947,0.00172338850010822));
#753=DIRECTION('center_axis',(-0.00181207790555044,0.,-0.999998358185484));
#754=DIRECTION('ref_axis',(-0.95105495483676,0.309016994374947,0.00172338850010822));
#755=DIRECTION('',(-0.00181207790555949,-2.78446970342072E-14,-0.999998358185484));
#756=DIRECTION('center_axis',(0.00181207790555044,0.,0.999998358185484));
#757=DIRECTION('ref_axis',(-0.95105495483676,0.309016994374947,0.00172338850010822));
#758=DIRECTION('center_axis',(-0.00181207790557972,0.,-0.999998358185484));
#759=DIRECTION('ref_axis',(0.,1.,0.));
#760=DIRECTION('center_axis',(-0.00181207790555044,0.,-0.999998358185484));
#761=DIRECTION('ref_axis',(0.,1.,0.));
#762=DIRECTION('',(-0.00181207790557972,0.,-0.999998358185484));
#763=DIRECTION('center_axis',(0.00181207790555044,0.,0.999998358185484));
#764=DIRECTION('ref_axis',(0.,1.,0.));
#765=DIRECTION('center_axis',(-0.00181207790555044,0.,-0.999998358185484));
#766=DIRECTION('ref_axis',(0.,1.,0.));
#767=DIRECTION('center_axis',(0.00181207790557972,0.,0.999998358185484));
#768=DIRECTION('ref_axis',(0.,1.,0.));
#769=DIRECTION('',(0.00181207790555044,0.,0.999998358185484));
#770=DIRECTION('center_axis',(-0.00181207790557972,0.,-0.999998358185484));
#771=DIRECTION('ref_axis',(0.,1.,0.));
#772=DIRECTION('center_axis',(-0.00181207790555044,0.,-0.999998358185484));
#773=DIRECTION('ref_axis',(0.,1.,0.));
#774=DIRECTION('center_axis',(-0.00181207790555044,0.,-0.999998358185484));
#775=DIRECTION('ref_axis',(0.,1.,0.));
#776=DIRECTION('',(0.00181207790555044,0.,0.999998358185484));
#777=DIRECTION('center_axis',(0.00181207790555044,0.,0.999998358185484));
#778=DIRECTION('ref_axis',(0.,1.,0.));
#779=DIRECTION('center_axis',(0.00181207790555044,0.,0.999998358185484));
#780=DIRECTION('ref_axis',(0.,1.,0.));
#781=DIRECTION('center_axis',(0.00181207790555044,0.,0.999998358185484));
#782=DIRECTION('ref_axis',(0.,1.,0.));
#783=DIRECTION('center_axis',(-0.00181207790557991,0.,-0.999998358185484));
#784=DIRECTION('ref_axis',(0.,1.,0.));
#785=DIRECTION('center_axis',(-0.00181207790555044,0.,-0.999998358185484));
#786=DIRECTION('ref_axis',(0.,1.,0.));
#787=DIRECTION('',(-0.00181207790557991,0.,-0.999998358185484));
#788=DIRECTION('center_axis',(0.00181207790555044,0.,0.999998358185484));
#789=DIRECTION('ref_axis',(0.,1.,0.));
#790=DIRECTION('center_axis',(-0.00181207790557991,0.,-0.999998358185484));
#791=DIRECTION('ref_axis',(0.,1.,0.));
#792=DIRECTION('center_axis',(-0.00181207790555044,0.,-0.999998358185484));
#793=DIRECTION('ref_axis',(0.,1.,0.));
#794=DIRECTION('',(-0.00181207790557991,0.,-0.999998358185484));
#795=DIRECTION('center_axis',(0.00181207790555044,0.,0.999998358185484));
#796=DIRECTION('ref_axis',(0.,1.,0.));
#797=DIRECTION('center_axis',(-0.00181207790557991,0.,-0.999998358185484));
#798=DIRECTION('ref_axis',(0.,1.,0.));
#799=DIRECTION('center_axis',(-0.00181207790555044,0.,-0.999998358185484));
#800=DIRECTION('ref_axis',(0.,1.,0.));
#801=DIRECTION('',(-0.00181207790557991,0.,-0.999998358185484));
#802=DIRECTION('center_axis',(0.00181207790555044,0.,0.999998358185484));
#803=DIRECTION('ref_axis',(0.,1.,0.));
#804=DIRECTION('center_axis',(0.999998358185484,0.,-0.00181207790554989));
#805=DIRECTION('ref_axis',(0.,-1.,0.));
#806=DIRECTION('',(0.,1.,0.));
#807=DIRECTION('',(-0.00181207790554989,0.,-0.999998358185484));
#808=DIRECTION('',(0.,-1.,0.));
#809=DIRECTION('',(-0.00181207790554989,0.,-0.999998358185484));
#810=DIRECTION('center_axis',(0.,1.,0.));
#811=DIRECTION('ref_axis',(0.999998358185484,0.,-0.00181207790556863));
#812=DIRECTION('',(-0.999998358185484,0.,0.00181207790556863));
#813=DIRECTION('',(0.999998358185484,0.,-0.00181207790556863));
#814=DIRECTION('',(-0.00181207790554989,0.,-0.999998358185484));
#815=DIRECTION('center_axis',(-0.00181207790554989,0.,-0.999998358185484));
#816=DIRECTION('ref_axis',(0.,1.,0.));
#817=DIRECTION('center_axis',(0.00181207790555044,0.,0.999998358185484));
#818=DIRECTION('ref_axis',(0.,1.,0.));
#819=DIRECTION('center_axis',(0.00181207790555044,0.,0.999998358185484));
#820=DIRECTION('ref_axis',(0.,1.,0.));
#821=DIRECTION('',(-0.00181207790554989,0.,-0.999998358185484));
#822=DIRECTION('center_axis',(0.,-1.,0.));
#823=DIRECTION('ref_axis',(-0.999998358185484,0.,0.00181207790557972));
#824=DIRECTION('',(0.999998358185484,0.,-0.00181207790557972));
#825=DIRECTION('',(-0.999998358185484,0.,0.00181207790557972));
#826=DIRECTION('center_axis',(0.00181207790555044,0.,0.999998358185484));
#827=DIRECTION('ref_axis',(0.,1.,0.));
#828=DIRECTION('center_axis',(0.00181207790555044,0.,0.999998358185484));
#829=DIRECTION('ref_axis',(0.,1.,0.));
#830=CARTESIAN_POINT('',(0.,0.,0.));
#831=CARTESIAN_POINT('Ctrl Pts',(45.,-37.5,4.44089209850063E-15));
#832=CARTESIAN_POINT('Ctrl Pts',(26.8642549464542,-37.5,-2.68586223186343));
#833=CARTESIAN_POINT('Ctrl Pts',(13.1615878336476,-37.5,9.49428631285354));
#834=CARTESIAN_POINT('Ctrl Pts',(-0.541079279159,-37.5,21.6744348575705));
#835=CARTESIAN_POINT('Ctrl Pts',(-3.88578058618805E-15,-37.5,40.));
#836=CARTESIAN_POINT('Ctrl Pts',(45.,-37.5,37.5));
#837=CARTESIAN_POINT('Ctrl Pts',(44.373777758365,-37.5,34.8141377681366));
#838=CARTESIAN_POINT('Ctrl Pts',(41.9125061785727,-37.5,33.5698900295509));
#839=CARTESIAN_POINT('Ctrl Pts',(39.4512345987804,-37.5,32.3256422909652));
#840=CARTESIAN_POINT('Ctrl Pts',(36.9171048833888,-37.5,33.4138503639174));
#841=CARTESIAN_POINT('Ctrl Pts',(45.,2.29621274840129E-15,37.5));
#842=CARTESIAN_POINT('Ctrl Pts',(44.373777758365,2.29621274840129E-15,34.8141377681366));
#843=CARTESIAN_POINT('Ctrl Pts',(41.9125061785726,2.29621274840129E-15,
33.5698900295509));
#844=CARTESIAN_POINT('Ctrl Pts',(39.4512345987804,2.29621274840129E-15,
32.3256422909652));
#845=CARTESIAN_POINT('Ctrl Pts',(36.9171048833888,2.29621274840129E-15,
33.4138503639174));
#846=CARTESIAN_POINT('Ctrl Pts',(45.,37.5,37.5));
#847=CARTESIAN_POINT('Ctrl Pts',(44.373777758365,37.5,34.8141377681366));
#848=CARTESIAN_POINT('Ctrl Pts',(41.9125061785726,37.5,33.5698900295509));
#849=CARTESIAN_POINT('Ctrl Pts',(39.4512345987804,37.5,32.3256422909652));
#850=CARTESIAN_POINT('Ctrl Pts',(36.9171048833888,37.5,33.4138503639174));
#851=CARTESIAN_POINT('Ctrl Pts',(45.,37.5,0.));
#852=CARTESIAN_POINT('Ctrl Pts',(26.8642549464542,37.5,-2.68586223186343));
#853=CARTESIAN_POINT('Ctrl Pts',(13.1615878336476,37.5,9.49428631285353));
#854=CARTESIAN_POINT('Ctrl Pts',(-0.541079279159009,37.5,21.6744348575705));
#855=CARTESIAN_POINT('Ctrl Pts',(-8.32667268468867E-15,37.5,40.));
#856=CARTESIAN_POINT('Ctrl Pts',(45.,37.5,-37.5));
#857=CARTESIAN_POINT('Ctrl Pts',(9.35473213454341,37.5,-40.1858622318634));
#858=CARTESIAN_POINT('Ctrl Pts',(-15.5893305112775,37.5,-14.5813174038438));
#859=CARTESIAN_POINT('Ctrl Pts',(-40.5333931570984,37.5,11.0232274241758));
#860=CARTESIAN_POINT('Ctrl Pts',(-36.9171048833888,37.5,46.5861496360826));
#861=CARTESIAN_POINT('Ctrl Pts',(45.,2.29621274840129E-15,-37.5));
#862=CARTESIAN_POINT('Ctrl Pts',(9.35473213454341,2.29621274840129E-15,
-40.1858622318634));
#863=CARTESIAN_POINT('Ctrl Pts',(-15.5893305112775,2.29621274840129E-15,
-14.5813174038438));
#864=CARTESIAN_POINT('Ctrl Pts',(-40.5333931570984,2.29621274840129E-15,
11.0232274241758));
#865=CARTESIAN_POINT('Ctrl Pts',(-36.9171048833888,2.29621274840129E-15,
46.5861496360826));
#866=CARTESIAN_POINT('Ctrl Pts',(45.,-37.5,-37.5));
#867=CARTESIAN_POINT('Ctrl Pts',(9.35473213454341,-37.5,-40.1858622318634));
#868=CARTESIAN_POINT('Ctrl Pts',(-15.5893305112775,-37.5,-14.5813174038438));
#869=CARTESIAN_POINT('Ctrl Pts',(-40.5333931570984,-37.5,11.0232274241758));
#870=CARTESIAN_POINT('Ctrl Pts',(-36.9171048833888,-37.5,46.5861496360826));
#871=CARTESIAN_POINT('Ctrl Pts',(45.,-37.5,-4.44089209850063E-15));
#872=CARTESIAN_POINT('Ctrl Pts',(26.8642549464542,-37.5,-2.68586223186344));
#873=CARTESIAN_POINT('Ctrl Pts',(13.1615878336476,-37.5,9.49428631285353));
#874=CARTESIAN_POINT('Ctrl Pts',(-0.541079279159009,-37.5,21.6744348575705));
#875=CARTESIAN_POINT('Ctrl Pts',(-1.27675647831893E-14,-37.5,40.));
#876=CARTESIAN_POINT('',(0.396176286739358,-37.5,33.1592787691878));
#877=CARTESIAN_POINT('Ctrl Pts',(0.396176286734387,-37.5,33.1592787691878));
#878=CARTESIAN_POINT('Ctrl Pts',(-4.00357565803429,-37.4999999999994,33.1672514755667));
#879=CARTESIAN_POINT('Ctrl Pts',(-8.37311595540852,-36.7256313113185,33.1751694359969));
#880=CARTESIAN_POINT('Ctrl Pts',(-17.0956483181507,-33.5280375567908,33.1909753701226));
#881=CARTESIAN_POINT('Ctrl Pts',(-21.3082304922871,-30.9679094322162,33.1986089097386));
#882=CARTESIAN_POINT('Ctrl Pts',(-28.5149471381021,-24.3770062306219,33.211668063185));
#883=CARTESIAN_POINT('Ctrl Pts',(-31.4401814706573,-20.4092437805013,33.2169688243905));
#884=CARTESIAN_POINT('Ctrl Pts',(-35.6050968170169,-11.5757640830476,33.2245159878593));
#885=CARTESIAN_POINT('Ctrl Pts',(-36.8049589700218,-6.79449971622458,33.2266902351262));
#886=CARTESIAN_POINT('Ctrl Pts',(-37.3044189503153,2.95883198511174,33.2275952970072));
#887=CARTESIAN_POINT('Ctrl Pts',(-36.599241667928,7.83765215258569,33.2263174587363));
#888=CARTESIAN_POINT('Ctrl Pts',(-33.3584571875604,17.0503728056908,33.220444895141));
#889=CARTESIAN_POINT('Ctrl Pts',(-30.8538336555408,21.296194660545,33.2159063147253));
#890=CARTESIAN_POINT('Ctrl Pts',(-24.3580795045403,28.5887922652822,33.2041354828227));
#891=CARTESIAN_POINT('Ctrl Pts',(-20.4290518356742,31.5658468072661,33.1970157669043));
#892=CARTESIAN_POINT('Ctrl Pts',(-11.6510016832703,35.8463284240132,33.1811092300534));
#893=CARTESIAN_POINT('Ctrl Pts',(-6.88590214357978,37.1088317614437,33.172474484283));
#894=CARTESIAN_POINT('Ctrl Pts',(2.86001953357083,37.736238440178,33.1548140859473));
#895=CARTESIAN_POINT('Ctrl Pts',(7.7476653478621,37.0951434316323,33.1459572764156));
#896=CARTESIAN_POINT('Ctrl Pts',(17.0021050740312,33.9755273501121,33.1291874831264));
#897=CARTESIAN_POINT('Ctrl Pts',(21.2804214980555,31.5268315071633,33.121434827733));
#898=CARTESIAN_POINT('Ctrl Pts',(28.6576202626854,25.1273237097697,33.1080667468986));
#899=CARTESIAN_POINT('Ctrl Pts',(31.6859725621925,21.2376945378408,33.1025791275967));
#900=CARTESIAN_POINT('Ctrl Pts',(35.1982288429583,14.268683563405,33.0962146351423));
#901=CARTESIAN_POINT('Ctrl Pts',(36.2035777565539,11.5155529455422,33.0943928615975));
#902=CARTESIAN_POINT('Ctrl Pts',(37.5548284850852,5.8319981745264,33.0919442859873));
#903=CARTESIAN_POINT('Ctrl Pts',(37.8961147188149,2.920987820181,33.0913258477004));
#904=CARTESIAN_POINT('Ctrl Pts',(37.8961147188149,2.29621274840129E-15,
33.0913258477004));
#905=CARTESIAN_POINT('Ctrl Pts',(37.8961147188149,-4.72589288361191,33.0913258477004));
#906=CARTESIAN_POINT('Ctrl Pts',(37.0027536434305,-9.40947169395745,33.0929446902526));
#907=CARTESIAN_POINT('Ctrl Pts',(33.5236070192051,-18.1976315232604,33.0992491853315));
#908=CARTESIAN_POINT('Ctrl Pts',(30.9689725919561,-22.2235262822614,33.1038783895342));
#909=CARTESIAN_POINT('Ctrl Pts',(24.3916549654299,-29.2285707384129,33.1157970210514));
#910=CARTESIAN_POINT('Ctrl Pts',(20.385854048154,-32.1014907128429,33.1230558563054));
#911=CARTESIAN_POINT('Ctrl Pts',(11.4984950185318,-36.1501362255253,33.1391604696827));
#912=CARTESIAN_POINT('Ctrl Pts',(6.70190490247788,-37.2871545059599,33.1478522789245));
#913=CARTESIAN_POINT('Ctrl Pts',(1.3468021738239,-37.4909698392441,33.1575561581932));
#914=CARTESIAN_POINT('Ctrl Pts',(0.871313062969824,-37.5000000000001,33.1584177829199));
#915=CARTESIAN_POINT('Ctrl Pts',(0.396176286734387,-37.5,33.1592787691878));
#916=CARTESIAN_POINT('',(45.,-37.5,-4.59242549680258E-15));
#917=CARTESIAN_POINT('Origin',(39.2477111011635,-37.5,38.8411749888089));
#918=CARTESIAN_POINT('Origin',(45.,0.,0.));
#919=CARTESIAN_POINT('Ctrl Pts',(45.,-4.89858719658941E-15,-40.));
#920=CARTESIAN_POINT('Ctrl Pts',(12.3010635814787,-4.89858719658941E-15,
-42.3857296519327));
#921=CARTESIAN_POINT('Ctrl Pts',(-12.488110872207,-4.89858719658941E-15,
-20.9285868137228));
#922=CARTESIAN_POINT('Ctrl Pts',(-37.2772853258928,-4.89858719658941E-15,
0.528556024487199));
#923=CARTESIAN_POINT('Ctrl Pts',(-39.60375804068,-4.89858719658941E-15,
33.231761885411));
#924=CARTESIAN_POINT('Ctrl Pts',(45.,-40.,-40.));
#925=CARTESIAN_POINT('Ctrl Pts',(12.3010635814787,-40.,-42.3857296519327));
#926=CARTESIAN_POINT('Ctrl Pts',(-12.488110872207,-40.,-20.9285868137228));
#927=CARTESIAN_POINT('Ctrl Pts',(-37.2772853258928,-40.,0.528556024487203));
#928=CARTESIAN_POINT('Ctrl Pts',(-39.60375804068,-40.,33.231761885411));
#929=CARTESIAN_POINT('Ctrl Pts',(45.,-40.,4.44089209850063E-15));
#930=CARTESIAN_POINT('Ctrl Pts',(28.8908398871528,-40.,-2.38572965193275));
#931=CARTESIAN_POINT('Ctrl Pts',(15.8217754278907,-40.,7.33004616233493));
#932=CARTESIAN_POINT('Ctrl Pts',(2.75271096862862,-40.,17.0458219766026));
#933=CARTESIAN_POINT('Ctrl Pts',(0.396176286739373,-40.,33.1592787691878));
#934=CARTESIAN_POINT('Ctrl Pts',(45.,-40.,40.));
#935=CARTESIAN_POINT('Ctrl Pts',(45.480616192827,-40.,37.6142703480672));
#936=CARTESIAN_POINT('Ctrl Pts',(44.1316617279885,-40.,35.5886791383926));
#937=CARTESIAN_POINT('Ctrl Pts',(42.78270726315,-40.,33.563087928718));
#938=CARTESIAN_POINT('Ctrl Pts',(40.3961106141587,-40.,33.0867956529646));
#939=CARTESIAN_POINT('Ctrl Pts',(45.,0.,40.));
#940=CARTESIAN_POINT('Ctrl Pts',(45.480616192827,0.,37.6142703480672));
#941=CARTESIAN_POINT('Ctrl Pts',(44.1316617279885,0.,35.5886791383926));
#942=CARTESIAN_POINT('Ctrl Pts',(42.78270726315,0.,33.563087928718));
#943=CARTESIAN_POINT('Ctrl Pts',(40.3961106141587,0.,33.0867956529646));
#944=CARTESIAN_POINT('Ctrl Pts',(45.,40.,40.));
#945=CARTESIAN_POINT('Ctrl Pts',(45.480616192827,40.,37.6142703480672));
#946=CARTESIAN_POINT('Ctrl Pts',(44.1316617279885,40.,35.5886791383926));
#947=CARTESIAN_POINT('Ctrl Pts',(42.78270726315,40.,33.563087928718));
#948=CARTESIAN_POINT('Ctrl Pts',(40.3961106141587,40.,33.0867956529646));
#949=CARTESIAN_POINT('Ctrl Pts',(45.,40.,4.44089209850063E-15));
#950=CARTESIAN_POINT('Ctrl Pts',(28.8908398871528,40.,-2.38572965193275));
#951=CARTESIAN_POINT('Ctrl Pts',(15.8217754278907,40.,7.33004616233493));
#952=CARTESIAN_POINT('Ctrl Pts',(2.75271096862862,40.,17.0458219766026));
#953=CARTESIAN_POINT('Ctrl Pts',(0.396176286739373,40.,33.1592787691878));
#954=CARTESIAN_POINT('Ctrl Pts',(45.,40.,-40.));
#955=CARTESIAN_POINT('Ctrl Pts',(12.3010635814787,40.,-42.3857296519327));
#956=CARTESIAN_POINT('Ctrl Pts',(-12.488110872207,40.,-20.9285868137228));
#957=CARTESIAN_POINT('Ctrl Pts',(-37.2772853258928,40.,0.528556024487203));
#958=CARTESIAN_POINT('Ctrl Pts',(-39.60375804068,40.,33.231761885411));
#959=CARTESIAN_POINT('Ctrl Pts',(45.,4.89858719658941E-15,-40.));
#960=CARTESIAN_POINT('Ctrl Pts',(12.3010635814787,4.89858719658941E-15,
-42.3857296519327));
#961=CARTESIAN_POINT('Ctrl Pts',(-12.488110872207,4.89858719658941E-15,
-20.9285868137228));
#962=CARTESIAN_POINT('Ctrl Pts',(-37.2772853258928,4.89858719658941E-15,
0.528556024487199));
#963=CARTESIAN_POINT('Ctrl Pts',(-39.60375804068,4.89858719658941E-15,33.231761885411));
#964=CARTESIAN_POINT('',(45.,-4.89858719658941E-15,-40.));
#965=CARTESIAN_POINT('Origin',(45.,0.,0.));
#966=CARTESIAN_POINT('',(-39.60375804068,-4.89858719658941E-15,33.231761885411));
#967=CARTESIAN_POINT('Origin',(39.2477111011635,-4.89858719658941E-15,38.8411749888089));
#968=CARTESIAN_POINT('Origin',(0.396176286739368,0.,33.1592787691878));
#969=CARTESIAN_POINT('Origin',(0.396176286739368,0.,33.1592787691878));
#970=CARTESIAN_POINT('Origin',(45.,0.,0.));
#971=CARTESIAN_POINT('Ctrl Pts',(0.396176286734387,-37.5,33.1592787691878));
#972=CARTESIAN_POINT('Ctrl Pts',(0.414297065790184,-37.5,43.1592623510427));
#973=CARTESIAN_POINT('Ctrl Pts',(-4.00357565803429,-37.4999999999994,33.1672514755667));
#974=CARTESIAN_POINT('Ctrl Pts',(-3.98545487897849,-37.4999999999994,43.1672350574215));
#975=CARTESIAN_POINT('Ctrl Pts',(-8.37311595540852,-36.7256313113185,33.1751694359969));
#976=CARTESIAN_POINT('Ctrl Pts',(-8.35499517635272,-36.7256313113185,43.1751530178518));
#977=CARTESIAN_POINT('Ctrl Pts',(-17.0956483181507,-33.5280375567908,33.1909753701226));
#978=CARTESIAN_POINT('Ctrl Pts',(-17.0775275390949,-33.5280375567908,43.1909589519774));
#979=CARTESIAN_POINT('Ctrl Pts',(-21.3082304922871,-30.9679094322162,33.1986089097386));
#980=CARTESIAN_POINT('Ctrl Pts',(-21.2901097132313,-30.9679094322162,43.1985924915934));
#981=CARTESIAN_POINT('Ctrl Pts',(-28.5149471381021,-24.3770062306219,33.211668063185));
#982=CARTESIAN_POINT('Ctrl Pts',(-28.4968263590463,-24.3770062306219,43.2116516450398));
#983=CARTESIAN_POINT('Ctrl Pts',(-31.4401814706573,-20.4092437805013,33.2169688243905));
#984=CARTESIAN_POINT('Ctrl Pts',(-31.4220606916015,-20.4092437805013,43.2169524062453));
#985=CARTESIAN_POINT('Ctrl Pts',(-35.6050968170169,-11.5757640830476,33.2245159878593));
#986=CARTESIAN_POINT('Ctrl Pts',(-35.5869760379611,-11.5757640830476,43.2244995697141));
#987=CARTESIAN_POINT('Ctrl Pts',(-36.8049589700218,-6.79449971622458,33.2266902351262));
#988=CARTESIAN_POINT('Ctrl Pts',(-36.786838190966,-6.79449971622458,43.226673816981));
#989=CARTESIAN_POINT('Ctrl Pts',(-37.3044189503153,2.95883198511174,33.2275952970072));
#990=CARTESIAN_POINT('Ctrl Pts',(-37.2862981712595,2.95883198511174,43.227578878862));
#991=CARTESIAN_POINT('Ctrl Pts',(-36.599241667928,7.83765215258569,33.2263174587363));
#992=CARTESIAN_POINT('Ctrl Pts',(-36.5811208888722,7.83765215258569,43.2263010405911));
#993=CARTESIAN_POINT('Ctrl Pts',(-33.3584571875604,17.0503728056908,33.220444895141));
#994=CARTESIAN_POINT('Ctrl Pts',(-33.3403364085046,17.0503728056908,43.2204284769958));
#995=CARTESIAN_POINT('Ctrl Pts',(-30.8538336555408,21.296194660545,33.2159063147253));
#996=CARTESIAN_POINT('Ctrl Pts',(-30.835712876485,21.296194660545,43.2158898965801));
#997=CARTESIAN_POINT('Ctrl Pts',(-24.3580795045403,28.5887922652822,33.2041354828227));
#998=CARTESIAN_POINT('Ctrl Pts',(-24.3399587254845,28.5887922652822,43.2041190646775));
#999=CARTESIAN_POINT('Ctrl Pts',(-20.4290518356742,31.5658468072661,33.1970157669043));
#1000=CARTESIAN_POINT('Ctrl Pts',(-20.4109310566184,31.5658468072661,43.1969993487591));
#1001=CARTESIAN_POINT('Ctrl Pts',(-11.6510016832703,35.8463284240132,33.1811092300534));
#1002=CARTESIAN_POINT('Ctrl Pts',(-11.6328809042145,35.8463284240132,43.1810928119083));
#1003=CARTESIAN_POINT('Ctrl Pts',(-6.88590214357978,37.1088317614437,33.172474484283));
#1004=CARTESIAN_POINT('Ctrl Pts',(-6.86778136452399,37.1088317614437,43.1724580661379));
#1005=CARTESIAN_POINT('Ctrl Pts',(2.86001953357083,37.736238440178,33.1548140859473));
#1006=CARTESIAN_POINT('Ctrl Pts',(2.87814031262662,37.736238440178,43.1547976678021));
#1007=CARTESIAN_POINT('Ctrl Pts',(7.7476653478621,37.0951434316323,33.1459572764156));
#1008=CARTESIAN_POINT('Ctrl Pts',(7.7657861269179,37.0951434316323,43.1459408582705));
#1009=CARTESIAN_POINT('Ctrl Pts',(17.0021050740312,33.9755273501121,33.1291874831264));
#1010=CARTESIAN_POINT('Ctrl Pts',(17.020225853087,33.9755273501121,43.1291710649813));
#1011=CARTESIAN_POINT('Ctrl Pts',(21.2804214980555,31.5268315071633,33.121434827733));
#1012=CARTESIAN_POINT('Ctrl Pts',(21.2985422771113,31.5268315071633,43.1214184095878));
#1013=CARTESIAN_POINT('Ctrl Pts',(28.6576202626854,25.1273237097697,33.1080667468986));
#1014=CARTESIAN_POINT('Ctrl Pts',(28.6757410417412,25.1273237097697,43.1080503287534));
#1015=CARTESIAN_POINT('Ctrl Pts',(31.6859725621925,21.2376945378408,33.1025791275967));
#1016=CARTESIAN_POINT('Ctrl Pts',(31.7040933412483,21.2376945378408,43.1025627094515));
#1017=CARTESIAN_POINT('Ctrl Pts',(35.1982288429583,14.268683563405,33.0962146351423));
#1018=CARTESIAN_POINT('Ctrl Pts',(35.2163496220141,14.268683563405,43.0961982169971));
#1019=CARTESIAN_POINT('Ctrl Pts',(36.2035777565539,11.5155529455422,33.0943928615975));
#1020=CARTESIAN_POINT('Ctrl Pts',(36.2216985356097,11.5155529455422,43.0943764434524));
#1021=CARTESIAN_POINT('Ctrl Pts',(37.5548284850852,5.8319981745264,33.0919442859873));
#1022=CARTESIAN_POINT('Ctrl Pts',(37.572949264141,5.8319981745264,43.0919278678422));
#1023=CARTESIAN_POINT('Ctrl Pts',(37.8961147188149,2.920987820181,33.0913258477004));
#1024=CARTESIAN_POINT('Ctrl Pts',(37.9142354978707,2.920987820181,43.0913094295552));
#1025=CARTESIAN_POINT('Ctrl Pts',(37.8961147188149,2.29621274840129E-15,
33.0913258477004));
#1026=CARTESIAN_POINT('Ctrl Pts',(37.9142354978707,2.29621274840129E-15,
43.0913094295552));
#1027=CARTESIAN_POINT('Ctrl Pts',(37.8961147188149,-4.72589288361191,33.0913258477004));
#1028=CARTESIAN_POINT('Ctrl Pts',(37.9142354978707,-4.72589288361191,43.0913094295552));
#1029=CARTESIAN_POINT('Ctrl Pts',(37.0027536434305,-9.40947169395745,33.0929446902526));
#1030=CARTESIAN_POINT('Ctrl Pts',(37.0208744224863,-9.40947169395745,43.0929282721075));
#1031=CARTESIAN_POINT('Ctrl Pts',(33.5236070192051,-18.1976315232604,33.0992491853315));
#1032=CARTESIAN_POINT('Ctrl Pts',(33.5417277982609,-18.1976315232604,43.0992327671863));
#1033=CARTESIAN_POINT('Ctrl Pts',(30.9689725919561,-22.2235262822614,33.1038783895342));
#1034=CARTESIAN_POINT('Ctrl Pts',(30.9870933710119,-22.2235262822614,43.103861971389));
#1035=CARTESIAN_POINT('Ctrl Pts',(24.3916549654299,-29.2285707384129,33.1157970210514));
#1036=CARTESIAN_POINT('Ctrl Pts',(24.4097757444857,-29.2285707384129,43.1157806029062));
#1037=CARTESIAN_POINT('Ctrl Pts',(20.385854048154,-32.1014907128429,33.1230558563054));
#1038=CARTESIAN_POINT('Ctrl Pts',(20.4039748272098,-32.1014907128429,43.1230394381602));
#1039=CARTESIAN_POINT('Ctrl Pts',(11.4984950185318,-36.1501362255253,33.1391604696827));
#1040=CARTESIAN_POINT('Ctrl Pts',(11.5166157975876,-36.1501362255253,43.1391440515376));
#1041=CARTESIAN_POINT('Ctrl Pts',(6.70190490247788,-37.2871545059599,33.1478522789245));
#1042=CARTESIAN_POINT('Ctrl Pts',(6.72002568153368,-37.2871545059599,43.1478358607793));
#1043=CARTESIAN_POINT('Ctrl Pts',(1.3468021738239,-37.4909698392441,33.1575561581932));
#1044=CARTESIAN_POINT('Ctrl Pts',(1.36492295287969,-37.4909698392441,43.157539740048));
#1045=CARTESIAN_POINT('Ctrl Pts',(0.871313062969824,-37.5000000000001,33.1584177829199));
#1046=CARTESIAN_POINT('Ctrl Pts',(0.889433842025621,-37.5000000000001,43.1584013647747));
#1047=CARTESIAN_POINT('Ctrl Pts',(0.396176286734387,-37.5,33.1592787691878));
#1048=CARTESIAN_POINT('Ctrl Pts',(0.414297065790184,-37.5,43.1592623510427));
#1049=CARTESIAN_POINT('',(0.396176286739358,-37.5,33.1592787691878));
#1050=CARTESIAN_POINT('Ctrl Pts',(0.396176286734387,-37.5,33.1592787691878));
#1051=CARTESIAN_POINT('Ctrl Pts',(-4.00357565803429,-37.4999999999994,33.1672514755667));
#1052=CARTESIAN_POINT('Ctrl Pts',(-8.37311595540852,-36.7256313113185,33.1751694359969));
#1053=CARTESIAN_POINT('Ctrl Pts',(-17.0956483181507,-33.5280375567908,33.1909753701226));
#1054=CARTESIAN_POINT('Ctrl Pts',(-21.3082304922871,-30.9679094322162,33.1986089097386));
#1055=CARTESIAN_POINT('Ctrl Pts',(-28.5149471381021,-24.3770062306219,33.211668063185));
#1056=CARTESIAN_POINT('Ctrl Pts',(-31.4401814706573,-20.4092437805013,33.2169688243905));
#1057=CARTESIAN_POINT('Ctrl Pts',(-35.6050968170169,-11.5757640830476,33.2245159878593));
#1058=CARTESIAN_POINT('Ctrl Pts',(-36.8049589700218,-6.79449971622458,33.2266902351262));
#1059=CARTESIAN_POINT('Ctrl Pts',(-37.3044189503153,2.95883198511174,33.2275952970072));
#1060=CARTESIAN_POINT('Ctrl Pts',(-36.599241667928,7.83765215258569,33.2263174587363));
#1061=CARTESIAN_POINT('Ctrl Pts',(-33.3584571875604,17.0503728056908,33.220444895141));
#1062=CARTESIAN_POINT('Ctrl Pts',(-30.8538336555408,21.296194660545,33.2159063147253));
#1063=CARTESIAN_POINT('Ctrl Pts',(-24.3580795045403,28.5887922652822,33.2041354828227));
#1064=CARTESIAN_POINT('Ctrl Pts',(-20.4290518356742,31.5658468072661,33.1970157669043));
#1065=CARTESIAN_POINT('Ctrl Pts',(-11.6510016832703,35.8463284240132,33.1811092300534));
#1066=CARTESIAN_POINT('Ctrl Pts',(-6.88590214357978,37.1088317614437,33.172474484283));
#1067=CARTESIAN_POINT('Ctrl Pts',(2.86001953357083,37.736238440178,33.1548140859473));
#1068=CARTESIAN_POINT('Ctrl Pts',(7.7476653478621,37.0951434316323,33.1459572764156));
#1069=CARTESIAN_POINT('Ctrl Pts',(17.0021050740312,33.9755273501121,33.1291874831264));
#1070=CARTESIAN_POINT('Ctrl Pts',(21.2804214980555,31.5268315071633,33.121434827733));
#1071=CARTESIAN_POINT('Ctrl Pts',(28.6576202626854,25.1273237097697,33.1080667468986));
#1072=CARTESIAN_POINT('Ctrl Pts',(31.6859725621925,21.2376945378408,33.1025791275967));
#1073=CARTESIAN_POINT('Ctrl Pts',(35.1982288429583,14.268683563405,33.0962146351423));
#1074=CARTESIAN_POINT('Ctrl Pts',(36.2035777565539,11.5155529455422,33.0943928615975));
#1075=CARTESIAN_POINT('Ctrl Pts',(37.5548284850852,5.8319981745264,33.0919442859873));
#1076=CARTESIAN_POINT('Ctrl Pts',(37.8961147188149,2.920987820181,33.0913258477004));
#1077=CARTESIAN_POINT('Ctrl Pts',(37.8961147188149,2.29621274840129E-15,
33.0913258477004));
#1078=CARTESIAN_POINT('Ctrl Pts',(37.8961147188149,-4.72589288361191,33.0913258477004));
#1079=CARTESIAN_POINT('Ctrl Pts',(37.0027536434305,-9.40947169395745,33.0929446902526));
#1080=CARTESIAN_POINT('Ctrl Pts',(33.5236070192051,-18.1976315232604,33.0992491853315));
#1081=CARTESIAN_POINT('Ctrl Pts',(30.9689725919561,-22.2235262822614,33.1038783895342));
#1082=CARTESIAN_POINT('Ctrl Pts',(24.3916549654299,-29.2285707384129,33.1157970210514));
#1083=CARTESIAN_POINT('Ctrl Pts',(20.385854048154,-32.1014907128429,33.1230558563054));
#1084=CARTESIAN_POINT('Ctrl Pts',(11.4984950185318,-36.1501362255253,33.1391604696827));
#1085=CARTESIAN_POINT('Ctrl Pts',(6.70190490247788,-37.2871545059599,33.1478522789245));
#1086=CARTESIAN_POINT('Ctrl Pts',(1.3468021738239,-37.4909698392441,33.1575561581932));
#1087=CARTESIAN_POINT('Ctrl Pts',(0.871313062969824,-37.5000000000001,33.1584177829199));
#1088=CARTESIAN_POINT('Ctrl Pts',(0.396176286734387,-37.5,33.1592787691878));
#1089=CARTESIAN_POINT('',(0.414297065795155,-37.5,43.1592623510427));
#1090=CARTESIAN_POINT('',(0.396176286739358,-37.5,33.1592787691878));
#1091=CARTESIAN_POINT('Ctrl Pts',(0.414297065790184,-37.5,43.1592623510427));
#1092=CARTESIAN_POINT('Ctrl Pts',(-3.98545487897849,-37.4999999999994,43.1672350574215));
#1093=CARTESIAN_POINT('Ctrl Pts',(-8.35499517635272,-36.7256313113185,43.1751530178518));
#1094=CARTESIAN_POINT('Ctrl Pts',(-17.0775275390949,-33.5280375567908,43.1909589519774));
#1095=CARTESIAN_POINT('Ctrl Pts',(-21.2901097132313,-30.9679094322162,43.1985924915934));
#1096=CARTESIAN_POINT('Ctrl Pts',(-28.4968263590463,-24.3770062306219,43.2116516450398));
#1097=CARTESIAN_POINT('Ctrl Pts',(-31.4220606916015,-20.4092437805013,43.2169524062453));
#1098=CARTESIAN_POINT('Ctrl Pts',(-35.5869760379611,-11.5757640830476,43.2244995697141));
#1099=CARTESIAN_POINT('Ctrl Pts',(-36.786838190966,-6.79449971622458,43.226673816981));
#1100=CARTESIAN_POINT('Ctrl Pts',(-37.2862981712595,2.95883198511174,43.227578878862));
#1101=CARTESIAN_POINT('Ctrl Pts',(-36.5811208888722,7.83765215258569,43.2263010405911));
#1102=CARTESIAN_POINT('Ctrl Pts',(-33.3403364085046,17.0503728056908,43.2204284769958));
#1103=CARTESIAN_POINT('Ctrl Pts',(-30.835712876485,21.296194660545,43.2158898965801));
#1104=CARTESIAN_POINT('Ctrl Pts',(-24.3399587254845,28.5887922652822,43.2041190646775));
#1105=CARTESIAN_POINT('Ctrl Pts',(-20.4109310566184,31.5658468072661,43.1969993487591));
#1106=CARTESIAN_POINT('Ctrl Pts',(-11.6328809042145,35.8463284240132,43.1810928119083));
#1107=CARTESIAN_POINT('Ctrl Pts',(-6.86778136452399,37.1088317614437,43.1724580661379));
#1108=CARTESIAN_POINT('Ctrl Pts',(2.87814031262662,37.736238440178,43.1547976678021));
#1109=CARTESIAN_POINT('Ctrl Pts',(7.7657861269179,37.0951434316323,43.1459408582705));
#1110=CARTESIAN_POINT('Ctrl Pts',(17.020225853087,33.9755273501121,43.1291710649813));
#1111=CARTESIAN_POINT('Ctrl Pts',(21.2985422771113,31.5268315071633,43.1214184095878));
#1112=CARTESIAN_POINT('Ctrl Pts',(28.6757410417412,25.1273237097697,43.1080503287534));
#1113=CARTESIAN_POINT('Ctrl Pts',(31.7040933412483,21.2376945378408,43.1025627094515));
#1114=CARTESIAN_POINT('Ctrl Pts',(35.2163496220141,14.268683563405,43.0961982169971));
#1115=CARTESIAN_POINT('Ctrl Pts',(36.2216985356097,11.5155529455422,43.0943764434524));
#1116=CARTESIAN_POINT('Ctrl Pts',(37.572949264141,5.8319981745264,43.0919278678422));
#1117=CARTESIAN_POINT('Ctrl Pts',(37.9142354978707,2.920987820181,43.0913094295552));
#1118=CARTESIAN_POINT('Ctrl Pts',(37.9142354978707,2.29621274840129E-15,
43.0913094295552));
#1119=CARTESIAN_POINT('Ctrl Pts',(37.9142354978707,-4.72589288361191,43.0913094295552));
#1120=CARTESIAN_POINT('Ctrl Pts',(37.0208744224863,-9.40947169395745,43.0929282721075));
#1121=CARTESIAN_POINT('Ctrl Pts',(33.5417277982609,-18.1976315232604,43.0992327671863));
#1122=CARTESIAN_POINT('Ctrl Pts',(30.9870933710119,-22.2235262822614,43.103861971389));
#1123=CARTESIAN_POINT('Ctrl Pts',(24.4097757444857,-29.2285707384129,43.1157806029062));
#1124=CARTESIAN_POINT('Ctrl Pts',(20.4039748272098,-32.1014907128429,43.1230394381602));
#1125=CARTESIAN_POINT('Ctrl Pts',(11.5166157975876,-36.1501362255253,43.1391440515376));
#1126=CARTESIAN_POINT('Ctrl Pts',(6.72002568153368,-37.2871545059599,43.1478358607793));
#1127=CARTESIAN_POINT('Ctrl Pts',(1.36492295287969,-37.4909698392441,43.157539740048));
#1128=CARTESIAN_POINT('Ctrl Pts',(0.889433842025621,-37.5000000000001,43.1584013647747));
#1129=CARTESIAN_POINT('Ctrl Pts',(0.414297065790184,-37.5,43.1592623510427));
#1130=CARTESIAN_POINT('Origin',(0.396176286739368,0.,33.1592787691878));
#1131=CARTESIAN_POINT('',(-39.5856372616242,-4.44089209850063E-15,43.2317454672658));
#1132=CARTESIAN_POINT('Origin',(0.414297065795165,0.,43.1592623510427));
#1133=CARTESIAN_POINT('',(-39.60375804068,-4.89858719658941E-15,33.231761885411));
#1134=CARTESIAN_POINT('',(-39.60375804068,-4.89858719658941E-15,33.231761885411));
#1135=CARTESIAN_POINT('Origin',(0.396176286739368,0.,33.1592787691878));
#1136=CARTESIAN_POINT('Origin',(0.414297065795165,0.,43.1592623510427));
#1137=CARTESIAN_POINT('Origin',(0.396176286739368,0.,33.1592787691878));
#1138=CARTESIAN_POINT('Origin',(51.0781262051377,0.,43.0674553949184));
#1139=CARTESIAN_POINT('',(51.0725167451595,1.5,39.9718651053463));
#1140=CARTESIAN_POINT('',(51.0725167451595,-1.5,39.9718651053463));
#1141=CARTESIAN_POINT('Ctrl Pts',(51.0725167451595,1.5,39.9718651053463));
#1142=CARTESIAN_POINT('Ctrl Pts',(51.2608843362284,1.5,39.9718651053463));
#1143=CARTESIAN_POINT('Ctrl Pts',(51.4617951362528,1.46235035685129,39.9733335805424));
#1144=CARTESIAN_POINT('Ctrl Pts',(51.8313705108245,1.30926130099471,39.9786405590502));
#1145=CARTESIAN_POINT('Ctrl Pts',(52.0000366173352,1.19382295237338,39.9824027984642));
#1146=CARTESIAN_POINT('Ctrl Pts',(52.2663831146366,0.927485968098032,39.9894675589555));
#1147=CARTESIAN_POINT('Ctrl Pts',(52.3818252524692,0.758828524556196,39.993228553124));
#1148=CARTESIAN_POINT('Ctrl Pts',(52.5349193926925,0.389267712480657,39.99853274159));
#1149=CARTESIAN_POINT('Ctrl Pts',(52.57257019059,0.188362758993893,40.));
#1150=CARTESIAN_POINT('Ctrl Pts',(52.57257019059,-0.188362758993893,40.));
#1151=CARTESIAN_POINT('Ctrl Pts',(52.5349193926925,-0.389267712480657,39.99853274159));
#1152=CARTESIAN_POINT('Ctrl Pts',(52.3818252524692,-0.758828524556196,39.993228553124));
#1153=CARTESIAN_POINT('Ctrl Pts',(52.2663831146366,-0.927485968098032,39.9894675589555));
#1154=CARTESIAN_POINT('Ctrl Pts',(52.0000366173352,-1.19382295237338,39.9824027984642));
#1155=CARTESIAN_POINT('Ctrl Pts',(51.8313705108245,-1.30926130099471,39.9786405590502));
#1156=CARTESIAN_POINT('Ctrl Pts',(51.4617951362528,-1.46235035685129,39.9733335805424));
#1157=CARTESIAN_POINT('Ctrl Pts',(51.2608843362284,-1.5,39.9718651053463));
#1158=CARTESIAN_POINT('Ctrl Pts',(51.0725167451595,-1.5,39.9718651053463));
#1159=CARTESIAN_POINT('Ctrl Pts',(51.0725167451595,-1.5,39.9718651053463));
#1160=CARTESIAN_POINT('Ctrl Pts',(50.8841575015804,-1.5,39.9718651053463));
#1161=CARTESIAN_POINT('Ctrl Pts',(50.6832550158429,-1.46235327716286,39.9733334702733));
#1162=CARTESIAN_POINT('Ctrl Pts',(50.3136989484752,-1.30926780620646,39.978640342574));
#1163=CARTESIAN_POINT('Ctrl Pts',(50.1450439112894,-1.19382993768758,39.9824025884458));
#1164=CARTESIAN_POINT('Ctrl Pts',(49.8787160833207,-0.927489744839533,39.9894674835022));
#1165=CARTESIAN_POINT('Ctrl Pts',(49.763285452986,-0.75882860538896,39.9932285591504));
#1166=CARTESIAN_POINT('Ctrl Pts',(49.6102096666345,-0.389264521430156,39.9985327802035));
#1167=CARTESIAN_POINT('Ctrl Pts',(49.5725652651384,-0.188360178562962,40.));
#1168=CARTESIAN_POINT('Ctrl Pts',(49.5725652651384,0.188360178562961,40.));
#1169=CARTESIAN_POINT('Ctrl Pts',(49.6102096666345,0.389264521430156,39.9985327802035));
#1170=CARTESIAN_POINT('Ctrl Pts',(49.763285452986,0.75882860538896,39.9932285591504));
#1171=CARTESIAN_POINT('Ctrl Pts',(49.8787160833207,0.927489744839534,39.9894674835022));
#1172=CARTESIAN_POINT('Ctrl Pts',(50.1450439112894,1.19382993768758,39.9824025884458));
#1173=CARTESIAN_POINT('Ctrl Pts',(50.3136989484752,1.30926780620646,39.978640342574));
#1174=CARTESIAN_POINT('Ctrl Pts',(50.6832550158429,1.46235327716286,39.9733334702733));
#1175=CARTESIAN_POINT('Ctrl Pts',(50.8841575015804,1.5,39.9718651053463));
#1176=CARTESIAN_POINT('Ctrl Pts',(51.0725167451595,1.5,39.9718651053463));
#1177=CARTESIAN_POINT('',(51.0679831414737,-1.5,37.4699879903904));
#1178=CARTESIAN_POINT('',(51.0781262051377,-1.5,43.0674553949184));
#1179=CARTESIAN_POINT('',(51.0679831414737,1.5,37.4699879903904));
#1180=CARTESIAN_POINT('Ctrl Pts',(51.0679831414737,1.5,37.4699879903904));
#1181=CARTESIAN_POINT('Ctrl Pts',(50.8796215045057,1.5,37.4699879903904));
#1182=CARTESIAN_POINT('Ctrl Pts',(50.6787181121716,1.46235233037179,37.4715544449652));
#1183=CARTESIAN_POINT('Ctrl Pts',(50.3091633191114,1.30926613374874,37.4772155989078));
#1184=CARTESIAN_POINT('Ctrl Pts',(50.1405102588751,1.19382861426125,37.4812289189171));
#1185=CARTESIAN_POINT('Ctrl Pts',(49.8741858811431,0.92749101763943,37.4887650988185));
#1186=CARTESIAN_POINT('Ctrl Pts',(49.75875609413,0.758831422904717,37.4927769997002));
#1187=CARTESIAN_POINT('Ctrl Pts',(49.6056802478887,0.389268034555885,37.4984349363378));
#1188=CARTESIAN_POINT('Ctrl Pts',(49.5680350629367,0.188362643582234,37.5));
#1189=CARTESIAN_POINT('Ctrl Pts',(49.5680350629367,-0.188362643582234,37.5));
#1190=CARTESIAN_POINT('Ctrl Pts',(49.6056802478887,-0.389268034555885,37.4984349363378));
#1191=CARTESIAN_POINT('Ctrl Pts',(49.75875609413,-0.758831422904717,37.4927769997002));
#1192=CARTESIAN_POINT('Ctrl Pts',(49.8741858811431,-0.92749101763943,37.4887650988185));
#1193=CARTESIAN_POINT('Ctrl Pts',(50.1405102588751,-1.19382861426125,37.4812289189171));
#1194=CARTESIAN_POINT('Ctrl Pts',(50.3091633191114,-1.30926613374874,37.4772155989078));
#1195=CARTESIAN_POINT('Ctrl Pts',(50.6787181121716,-1.46235233037179,37.4715544449652));
#1196=CARTESIAN_POINT('Ctrl Pts',(50.8796215045057,-1.5,37.4699879903904));
#1197=CARTESIAN_POINT('Ctrl Pts',(51.0679831414737,-1.5,37.4699879903904));
#1198=CARTESIAN_POINT('Ctrl Pts',(51.0679831414737,-1.5,37.4699879903904));
#1199=CARTESIAN_POINT('Ctrl Pts',(51.2563536775993,-1.5,37.4699879903904));
#1200=CARTESIAN_POINT('Ctrl Pts',(51.4572659335353,-1.46234921738991,37.4715545703519));
#1201=CARTESIAN_POINT('Ctrl Pts',(51.8268413141831,-1.30925920503858,37.4772158448639));
#1202=CARTESIAN_POINT('Ctrl Pts',(51.9955061798477,-1.19382117945181,37.4812291573471));
#1203=CARTESIAN_POINT('Ctrl Pts',(52.2618504785852,-0.927487010656245,37.4887651841399));
#1204=CARTESIAN_POINT('Ctrl Pts',(52.3772925464141,-0.758831355349555,37.4927769924855));
#1205=CARTESIAN_POINT('Ctrl Pts',(52.5303879783899,-0.389271448922771,37.4984348923136));
#1206=CARTESIAN_POINT('Ctrl Pts',(52.5680399883883,-0.188365401419237,37.5));
#1207=CARTESIAN_POINT('Ctrl Pts',(52.5680399883883,0.188365401419236,37.5));
#1208=CARTESIAN_POINT('Ctrl Pts',(52.5303879783899,0.38927144892277,37.4984348923136));
#1209=CARTESIAN_POINT('Ctrl Pts',(52.3772925464141,0.758831355349555,37.4927769924855));
#1210=CARTESIAN_POINT('Ctrl Pts',(52.2618504785852,0.927487010656245,37.4887651841399));
#1211=CARTESIAN_POINT('Ctrl Pts',(51.9955061798477,1.19382117945181,37.4812291573471));
#1212=CARTESIAN_POINT('Ctrl Pts',(51.8268413141831,1.30925920503858,37.4772158448639));
#1213=CARTESIAN_POINT('Ctrl Pts',(51.4572659335353,1.46234921738991,37.4715545703519));
#1214=CARTESIAN_POINT('Ctrl Pts',(51.2563536775993,1.5,37.4699879903904));
#1215=CARTESIAN_POINT('Ctrl Pts',(51.0679831414737,1.5,37.4699879903904));
#1216=CARTESIAN_POINT('Origin',(94.9387342852449,0.,42.9879764256042));
#1217=CARTESIAN_POINT('',(94.9332688475874,1.5,39.9718651053463));
#1218=CARTESIAN_POINT('',(94.9332688475875,-1.5,39.9718651053463));
#1219=CARTESIAN_POINT('Ctrl Pts',(94.9332688475874,1.5,39.9718651053463));
#1220=CARTESIAN_POINT('Ctrl Pts',(95.1216346824677,1.5,39.9718651053463));
#1221=CARTESIAN_POINT('Ctrl Pts',(95.3225437296653,1.46235105316193,39.9733335525548));
#1222=CARTESIAN_POINT('Ctrl Pts',(95.692116427442,1.30926462054805,39.978640447824));
#1223=CARTESIAN_POINT('Ctrl Pts',(95.8607816099288,1.19382819884612,39.98240263457));
#1224=CARTESIAN_POINT('Ctrl Pts',(96.1271299702757,0.927493077690251,39.9894673950955));
#1225=CARTESIAN_POINT('Ctrl Pts',(96.2425740351304,0.758834710225144,39.9932284419434));
#1226=CARTESIAN_POINT('Ctrl Pts',(96.3956707987575,0.389271221479401,39.9985327136255));
#1227=CARTESIAN_POINT('Ctrl Pts',(96.433322293018,0.188364515187093,40.));
#1228=CARTESIAN_POINT('Ctrl Pts',(96.433322293018,-0.188364515187093,40.));
#1229=CARTESIAN_POINT('Ctrl Pts',(96.3956707987575,-0.389271221479401,39.9985327136255));
#1230=CARTESIAN_POINT('Ctrl Pts',(96.2425740351304,-0.758834710225144,39.9932284419434));
#1231=CARTESIAN_POINT('Ctrl Pts',(96.1271299702757,-0.927493077690251,39.9894673950955));
#1232=CARTESIAN_POINT('Ctrl Pts',(95.8607816099288,-1.19382819884612,39.98240263457));
#1233=CARTESIAN_POINT('Ctrl Pts',(95.692116427442,-1.30926462054805,39.978640447824));
#1234=CARTESIAN_POINT('Ctrl Pts',(95.3225437296653,-1.46235105316193,39.9733335525548));
#1235=CARTESIAN_POINT('Ctrl Pts',(95.1216346824678,-1.5,39.9718651053463));
#1236=CARTESIAN_POINT('Ctrl Pts',(94.9332688475875,-1.5,39.9718651053463));
#1237=CARTESIAN_POINT('Ctrl Pts',(94.9332688475875,-1.5,39.9718651053463));
#1238=CARTESIAN_POINT('Ctrl Pts',(94.7449111983339,-1.5,39.9718651053463));
#1239=CARTESIAN_POINT('Ctrl Pts',(94.5440103038816,-1.46235390928585,39.9733334448655));
#1240=CARTESIAN_POINT('Ctrl Pts',(94.1744566665028,-1.309270819894,39.9786402415958));
#1241=CARTESIAN_POINT('Ctrl Pts',(94.005802468071,-1.19383470080413,39.9824024396504));
#1242=CARTESIAN_POINT('Ctrl Pts',(93.7394729485985,-0.927496199398737,39.9894673347387));
#1243=CARTESIAN_POINT('Ctrl Pts',(93.6240405689227,-0.758834221108487,39.9932284582141));
#1244=CARTESIAN_POINT('Ctrl Pts',(93.4709624011425,-0.389267707054511,39.9985327548167));
#1245=CARTESIAN_POINT('Ctrl Pts',(93.4333173675663,-0.1883617728843,40.));
#1246=CARTESIAN_POINT('Ctrl Pts',(93.4333173675663,0.1883617728843,40.));
#1247=CARTESIAN_POINT('Ctrl Pts',(93.4709624011425,0.389267707054511,39.9985327548167));
#1248=CARTESIAN_POINT('Ctrl Pts',(93.6240405689227,0.758834221108486,39.9932284582141));
#1249=CARTESIAN_POINT('Ctrl Pts',(93.7394729485985,0.927496199398736,39.9894673347387));
#1250=CARTESIAN_POINT('Ctrl Pts',(94.005802468071,1.19383470080413,39.9824024396504));
#1251=CARTESIAN_POINT('Ctrl Pts',(94.1744566665028,1.309270819894,39.9786402415958));
#1252=CARTESIAN_POINT('Ctrl Pts',(94.5440103038816,1.46235390928585,39.9733334448655));
#1253=CARTESIAN_POINT('Ctrl Pts',(94.7449111983339,1.5,39.9718651053463));
#1254=CARTESIAN_POINT('Ctrl Pts',(94.9332688475875,1.5,39.9718651053463));
#1255=CARTESIAN_POINT('',(94.9287352439016,-1.5,37.4699879903904));
#1256=CARTESIAN_POINT('',(94.9387342852449,-1.5,42.9879764256042));
#1257=CARTESIAN_POINT('',(94.9287352439016,1.5,37.4699879903904));
#1258=CARTESIAN_POINT('Ctrl Pts',(94.9287352439016,1.5,37.4699879903904));
#1259=CARTESIAN_POINT('Ctrl Pts',(94.7403753130541,1.5,37.4699879903904));
#1260=CARTESIAN_POINT('Ctrl Pts',(94.5394736235392,1.46235300682378,37.47155441596));
#1261=CARTESIAN_POINT('Ctrl Pts',(94.1699214307527,1.30926935870004,37.4772154836382));
#1262=CARTESIAN_POINT('Ctrl Pts',(94.0012692680323,1.19383371124461,37.4812287490666));
#1263=CARTESIAN_POINT('Ctrl Pts',(93.7349430802495,0.927497924604046,37.4887649290094));
#1264=CARTESIAN_POINT('Ctrl Pts',(93.6195114213048,0.758837432255394,37.4927768844853));
#1265=CARTESIAN_POINT('Ctrl Pts',(93.4664330267196,0.389271443511133,37.4984349073599));
#1266=CARTESIAN_POINT('Ctrl Pts',(93.4287871653646,0.188364349697912,37.5));
#1267=CARTESIAN_POINT('Ctrl Pts',(93.4287871653646,-0.188362643582233,37.5));
#1268=CARTESIAN_POINT('Ctrl Pts',(93.4664323503167,-0.389268034555898,37.4984349363378));
#1269=CARTESIAN_POINT('Ctrl Pts',(93.619508196558,-0.758831422904733,37.4927769997002));
#1270=CARTESIAN_POINT('Ctrl Pts',(93.7349379835711,-0.927491017639431,37.4887650988185));
#1271=CARTESIAN_POINT('Ctrl Pts',(94.001262361303,-1.19382861426125,37.4812289189171));
#1272=CARTESIAN_POINT('Ctrl Pts',(94.1699154215394,-1.30926613374874,37.4772155989078));
#1273=CARTESIAN_POINT('Ctrl Pts',(94.5394702145996,-1.46235233037179,37.4715544449652));
#1274=CARTESIAN_POINT('Ctrl Pts',(94.7403736069336,-1.5,37.4699879903904));
#1275=CARTESIAN_POINT('Ctrl Pts',(94.9287352439016,-1.5,37.4699879903904));
#1276=CARTESIAN_POINT('Ctrl Pts',(94.9287352439016,-1.5,37.4699879903904));
#1277=CARTESIAN_POINT('Ctrl Pts',(95.1171057800272,-1.5,37.4699879903904));
#1278=CARTESIAN_POINT('Ctrl Pts',(95.3180180359633,-1.46234921738991,37.4715545703519));
#1279=CARTESIAN_POINT('Ctrl Pts',(95.687593416611,-1.30925920503859,37.4772158448639));
#1280=CARTESIAN_POINT('Ctrl Pts',(95.8562582822757,-1.19382117945181,37.4812291573471));
#1281=CARTESIAN_POINT('Ctrl Pts',(96.1226025810131,-0.927487010656246,37.4887651841399));
#1282=CARTESIAN_POINT('Ctrl Pts',(96.238044648842,-0.75883135534956,37.4927769924855));
#1283=CARTESIAN_POINT('Ctrl Pts',(96.3911400808179,-0.389271448922776,37.4984348923136));
#1284=CARTESIAN_POINT('Ctrl Pts',(96.4287920908163,-0.188365401419239,37.5));
#1285=CARTESIAN_POINT('Ctrl Pts',(96.4287920908163,0.188365401419238,37.5));
#1286=CARTESIAN_POINT('Ctrl Pts',(96.3911400808179,0.389271448922775,37.4984348923136));
#1287=CARTESIAN_POINT('Ctrl Pts',(96.238044648842,0.75883135534956,37.4927769924855));
#1288=CARTESIAN_POINT('Ctrl Pts',(96.1226025810131,0.927487010656246,37.4887651841399));
#1289=CARTESIAN_POINT('Ctrl Pts',(95.8562582822757,1.19382117945181,37.4812291573471));
#1290=CARTESIAN_POINT('Ctrl Pts',(95.687593416611,1.30925920503859,37.4772158448639));
#1291=CARTESIAN_POINT('Ctrl Pts',(95.3180180359633,1.46234921738991,37.4715545703519));
#1292=CARTESIAN_POINT('Ctrl Pts',(95.1171057800272,1.5,37.4699879903904));
#1293=CARTESIAN_POINT('Ctrl Pts',(94.9287352439016,1.5,37.4699879903904));
#1294=CARTESIAN_POINT('Origin',(137.099256564187,-0.0688641446575459,42.9115781492645));
#1295=CARTESIAN_POINT('',(137.09393414157,1.43113585534245,39.9743899285974));
#1296=CARTESIAN_POINT('',(137.093924775913,-1.56886414465754,39.9692214747249));
#1297=CARTESIAN_POINT('Ctrl Pts',(137.09393414157,1.43113585534245,39.9743899285974));
#1298=CARTESIAN_POINT('Ctrl Pts',(137.282301074904,1.43113585534245,39.9743899285974));
#1299=CARTESIAN_POINT('Ctrl Pts',(137.483212135338,1.39348649064064,39.9757934371969));
#1300=CARTESIAN_POINT('Ctrl Pts',(137.852789672297,1.24039601564275,39.9808364501558));
#1301=CARTESIAN_POINT('Ctrl Pts',(138.021457590925,1.12495588473533,39.9843997128821));
#1302=CARTESIAN_POINT('Ctrl Pts',(138.287804231989,0.858614703348216,39.9910055547508));
#1303=CARTESIAN_POINT('Ctrl Pts',(138.403244880003,0.689956269154126,39.9944759860732));
#1304=CARTESIAN_POINT('Ctrl Pts',(138.556335065506,0.32039649287717,39.9991436800993));
#1305=CARTESIAN_POINT('Ctrl Pts',(138.593983492017,0.119493735282637,40.0002649996637));
#1306=CARTESIAN_POINT('Ctrl Pts',(138.59398231675,-0.257231812641895,39.9996164266368));
#1307=CARTESIAN_POINT('Ctrl Pts',(138.556329138892,-0.45813903299369,39.9978032081867));
#1308=CARTESIAN_POINT('Ctrl Pts',(138.403230884227,-0.827701105355959,39.9918624689406));
#1309=CARTESIAN_POINT('Ctrl Pts',(138.287787102182,-0.996357710399848,39.9878108766472));
#1310=CARTESIAN_POINT('Ctrl Pts',(138.021440593911,-1.26269034198715,39.9802871493594));
#1311=CARTESIAN_POINT('Ctrl Pts',(137.852776452252,-1.37812675381209,39.9763259111125));
#1312=CARTESIAN_POINT('Ctrl Pts',(137.483203464846,-1.53121423117709,39.9707549301106));
#1313=CARTESIAN_POINT('Ctrl Pts',(137.282292995858,-1.56886414465754,39.9692214747249));
#1314=CARTESIAN_POINT('Ctrl Pts',(137.093924775913,-1.56886414465754,39.9692214747249));
#1315=CARTESIAN_POINT('Ctrl Pts',(137.093924775913,-1.56886414465754,39.9692214747249));
#1316=CARTESIAN_POINT('Ctrl Pts',(136.905563580986,-1.56886414465754,39.9692214747249));
#1317=CARTESIAN_POINT('Ctrl Pts',(136.704660103402,-1.53121661305625,39.9707548377265));
#1318=CARTESIAN_POINT('Ctrl Pts',(136.335104757201,-1.37813032422772,39.9763257868874));
#1319=CARTESIAN_POINT('Ctrl Pts',(136.166451344513,-1.26269252780569,39.9802870863226));
#1320=CARTESIAN_POINT('Ctrl Pts',(135.900126587557,-0.996354574248624,39.9878109665303));
#1321=CARTESIAN_POINT('Ctrl Pts',(135.784697154603,-0.82769496328018,39.9918625979544));
#1322=CARTESIAN_POINT('Ctrl Pts',(135.63162213748,-0.4581320707888,39.9978032898242));
#1323=CARTESIAN_POINT('Ctrl Pts',(135.593977391313,-0.257227225722492,39.9996164345337));
#1324=CARTESIAN_POINT('Ctrl Pts',(135.593978566563,0.119493015024785,40.0002649984237));
#1325=CARTESIAN_POINT('Ctrl Pts',(135.63162257388,0.320396780748112,39.9991436905017));
#1326=CARTESIAN_POINT('Ctrl Pts',(135.784699070554,0.689962057838436,39.9944758989211));
#1327=CARTESIAN_POINT('Ctrl Pts',(135.900130892112,0.858624801009142,39.9910053504066));
#1328=CARTESIAN_POINT('Ctrl Pts',(136.16646179045,1.12496723260484,39.9843993853256));
#1329=CARTESIAN_POINT('Ctrl Pts',(136.33511837621,1.24040517916824,39.9808361603358));
#1330=CARTESIAN_POINT('Ctrl Pts',(136.704675162716,1.39348989137628,39.9757933131316));
#1331=CARTESIAN_POINT('Ctrl Pts',(136.905576731928,1.43113585534245,39.9743899285974));
#1332=CARTESIAN_POINT('Ctrl Pts',(137.09393414157,1.43113585534245,39.9743899285974));
#1333=CARTESIAN_POINT('',(137.089390852344,-1.56886414465754,37.4671678312574));
#1334=CARTESIAN_POINT('',(137.099256564187,-1.56886414465754,42.9115781492645));
#1335=CARTESIAN_POINT('',(137.089400843348,1.43113585534245,37.4726813847575));
#1336=CARTESIAN_POINT('Ctrl Pts',(137.089400843348,1.43113585534245,37.4726813847575));
#1337=CARTESIAN_POINT('Ctrl Pts',(136.901041305704,1.43113585534245,37.4726813847575));
#1338=CARTESIAN_POINT('Ctrl Pts',(136.700138968233,1.39348905365182,37.4741785003158));
#1339=CARTESIAN_POINT('Ctrl Pts',(136.33058338752,1.24040372355666,37.4795579565025));
#1340=CARTESIAN_POINT('Ctrl Pts',(136.161928584048,1.12496611376453,37.483358946718));
#1341=CARTESIAN_POINT('Ctrl Pts',(135.895600759243,0.858625957230601,37.4904055479096));
#1342=CARTESIAN_POINT('Ctrl Pts',(135.780169652953,0.689964531040203,37.494107532646));
#1343=CARTESIAN_POINT('Ctrl Pts',(135.627093083846,0.320399782166932,37.4990865849178));
#1344=CARTESIAN_POINT('Ctrl Pts',(135.589448396382,0.119495051692652,37.5002826687895));
#1345=CARTESIAN_POINT('Ctrl Pts',(135.589447142765,-0.257230103124785,37.4995908581415));
#1346=CARTESIAN_POINT('Ctrl Pts',(135.627092768901,-0.458136069367035,37.4976567988494));
#1347=CARTESIAN_POINT('Ctrl Pts',(135.78016782528,-0.827698099081247,37.4913199276752));
#1348=CARTESIAN_POINT('Ctrl Pts',(135.895596286004,-0.996355947918491,37.4869980759075));
#1349=CARTESIAN_POINT('Ctrl Pts',(136.161917215839,-1.26269098392557,37.478972250366));
#1350=CARTESIAN_POINT('Ctrl Pts',(136.330568446398,-1.3781284198528,37.474746560893));
#1351=CARTESIAN_POINT('Ctrl Pts',(136.700122449449,-1.53121555028836,37.4688036463357));
#1352=CARTESIAN_POINT('Ctrl Pts',(136.901026982366,-1.56886414465754,37.4671678312574));
#1353=CARTESIAN_POINT('Ctrl Pts',(137.089390852344,-1.56886414465754,37.4671678312574));
#1354=CARTESIAN_POINT('Ctrl Pts',(137.089390852344,-1.56886414465754,37.4671678312574));
#1355=CARTESIAN_POINT('Ctrl Pts',(137.27776209241,-1.56886414465754,37.4671678312574));
#1356=CARTESIAN_POINT('Ctrl Pts',(137.478673959688,-1.53121305861128,37.4688037492674));
#1357=CARTESIAN_POINT('Ctrl Pts',(137.84824659298,-1.37812484552727,37.4747466934461));
#1358=CARTESIAN_POINT('Ctrl Pts',(138.016909203786,-1.26268902247706,37.47897230908));
#1359=CARTESIAN_POINT('Ctrl Pts',(138.283253467975,-0.996359794169661,37.4869979603963));
#1360=CARTESIAN_POINT('Ctrl Pts',(138.398697370585,-0.827705086481171,37.4913197717243));
#1361=CARTESIAN_POINT('Ctrl Pts',(138.551797399005,-0.45814374300946,37.4976567034064));
#1362=CARTESIAN_POINT('Ctrl Pts',(138.5894520682,-0.257235119736959,37.4995908489291));
#1363=CARTESIAN_POINT('Ctrl Pts',(138.589453321836,0.119495717266405,37.5002826700118));
#1364=CARTESIAN_POINT('Ctrl Pts',(138.551803961229,0.320399269807763,37.49908657445));
#1365=CARTESIAN_POINT('Ctrl Pts',(138.3987129439,0.689957994622759,37.4941076380798));
#1366=CARTESIAN_POINT('Ctrl Pts',(138.283272535164,0.858614770624561,37.4904057898712));
#1367=CARTESIAN_POINT('Ctrl Pts',(138.016928025878,1.12495370280718,37.4833593290773));
#1368=CARTESIAN_POINT('Ctrl Pts',(137.848261079187,1.24039375508949,37.4795582928538));
#1369=CARTESIAN_POINT('Ctrl Pts',(137.478683206995,1.39348538538151,37.4741786431616));
#1370=CARTESIAN_POINT('Ctrl Pts',(137.277770642762,1.43113585534245,37.4726813847575));
#1371=CARTESIAN_POINT('Ctrl Pts',(137.089400843348,1.43113585534245,37.4726813847575));
#1372=CARTESIAN_POINT('Origin',(45.,0.,0.));
#1373=CARTESIAN_POINT('',(145.,-37.5,-4.59242549680258E-15));
#1374=CARTESIAN_POINT('Origin',(145.,0.,0.));
#1375=CARTESIAN_POINT('',(45.,-37.5,-4.59242549680258E-15));
#1376=CARTESIAN_POINT('',(45.,-37.5,-4.59242549680258E-15));
#1377=CARTESIAN_POINT('Origin',(45.,0.,0.));
#1378=CARTESIAN_POINT('Origin',(45.,0.,0.));
#1379=CARTESIAN_POINT('',(145.,-4.44089209850063E-15,-40.));
#1380=CARTESIAN_POINT('Origin',(145.,0.,0.));
#1381=CARTESIAN_POINT('',(45.,-4.89858719658941E-15,-40.));
#1382=CARTESIAN_POINT('',(45.,4.89858719658941E-15,-40.));
#1383=CARTESIAN_POINT('Origin',(45.,0.,0.));
#1384=CARTESIAN_POINT('Origin',(145.,0.,0.));
#1385=CARTESIAN_POINT('Origin',(45.,0.,0.));
#1386=CARTESIAN_POINT('Origin',(40.0225178760814,12.9787139571469,43.0874890513957));
#1387=CARTESIAN_POINT('',(38.5959354438262,12.5151884655845,43.0900741341459));
#1388=CARTESIAN_POINT('Origin',(40.0225178760814,12.9787139571469,43.0874890513957));
#1389=CARTESIAN_POINT('',(38.5868750542984,12.5151884655846,38.0900823432185));
#1390=CARTESIAN_POINT('',(38.5959354438262,12.5151884655845,43.0900741341459));
#1391=CARTESIAN_POINT('Origin',(40.0134574865536,12.978713957147,38.0874972604683));
#1392=CARTESIAN_POINT('Origin',(24.7651496104271,-33.9787142700693,43.115136636719));
#1393=CARTESIAN_POINT('',(23.88347317954,-32.7651887785069,43.1167343057223));
#1394=CARTESIAN_POINT('Origin',(24.7651496104271,-33.9787142700693,43.115136636719));
#1395=CARTESIAN_POINT('',(23.8744127900123,-32.7651887785068,38.1167425147949));
#1396=CARTESIAN_POINT('',(23.88347317954,-32.7651887785069,43.1167343057223));
#1397=CARTESIAN_POINT('Origin',(24.7560892208995,-33.9787142700693,38.1151448457916));
#1398=CARTESIAN_POINT('Origin',(-24.6087312549826,-33.9787142700708,43.2046061022387));
#1399=CARTESIAN_POINT('',(-23.7270548240954,-32.7651887785084,43.2030084332354));
#1400=CARTESIAN_POINT('Origin',(-24.6087312549826,-33.9787142700708,43.2046061022387));
#1401=CARTESIAN_POINT('',(-23.736115213623,-32.7651887785085,38.203016642308));
#1402=CARTESIAN_POINT('',(-23.7270548240954,-32.7651887785084,43.2030084332354));
#1403=CARTESIAN_POINT('Origin',(-24.6177916445102,-33.9787142700709,38.2046143113113));
#1404=CARTESIAN_POINT('Origin',(-39.8660995206396,12.9787139571445,43.232253687562));
#1405=CARTESIAN_POINT('',(-38.4395170883845,12.5151884655821,43.2296686048118));
#1406=CARTESIAN_POINT('Origin',(-39.8660995206396,12.9787139571445,43.232253687562));
#1407=CARTESIAN_POINT('',(-38.4485774779123,12.5151884655819,38.2296768138844));
#1408=CARTESIAN_POINT('',(-38.4395170883845,12.5151884655821,43.2296686048118));
#1409=CARTESIAN_POINT('Origin',(-39.8751599101674,12.9787139571444,38.2322618966346));
#1410=CARTESIAN_POINT('Origin',(0.0782091777199948,42.0000006258488,43.1598713694789));
#1411=CARTESIAN_POINT('',(0.078209177719995,40.5000006258488,43.1598713694789));
#1412=CARTESIAN_POINT('Origin',(0.0782091777199948,42.0000006258488,43.1598713694789));
#1413=CARTESIAN_POINT('',(0.0691487881920964,40.5000006258488,38.1598795785514));
#1414=CARTESIAN_POINT('',(0.0782091777199946,40.5000006258488,43.1598713694789));
#1415=CARTESIAN_POINT('Origin',(0.0691487881920962,42.0000006258488,38.1598795785514));
#1416=CARTESIAN_POINT('Origin',(0.414297065795165,0.,43.1592623510427));
#1417=CARTESIAN_POINT('',(0.405236676267418,-40.,38.1592705601152));
#1418=CARTESIAN_POINT('Origin',(0.405236676267413,0.,38.1592705601152));
#1419=CARTESIAN_POINT('',(0.41429706579517,-40.,43.1592623510427));
#1420=CARTESIAN_POINT('',(0.41429706579516,-40.,43.1592623510427));
#1421=CARTESIAN_POINT('Origin',(0.414297065795165,0.,43.1592623510427));
#1422=CARTESIAN_POINT('Origin',(0.0782091777212585,0.,43.1598713694789));
#1423=CARTESIAN_POINT('',(0.0691487881935118,-45.,38.1598795785515));
#1424=CARTESIAN_POINT('Origin',(0.0691487881935064,0.,38.1598795785514));
#1425=CARTESIAN_POINT('',(0.078209177721264,-45.,43.1598713694789));
#1426=CARTESIAN_POINT('',(0.078209177721253,-45.,43.1598713694789));
#1427=CARTESIAN_POINT('Origin',(0.0782091777212585,0.,43.1598713694789));
#1428=CARTESIAN_POINT('Origin',(0.0782091777212585,0.,43.1598713694789));
#1429=CARTESIAN_POINT('Origin',(0.0691487881935064,0.,38.1598795785514));
#1430=CARTESIAN_POINT('Origin',(51.0781262051377,0.,43.0674553949184));
#1431=CARTESIAN_POINT('',(51.0781262051377,-1.5,43.0674553949184));
#1432=CARTESIAN_POINT('Origin',(51.0781262051377,0.,43.0674553949212));
#1433=CARTESIAN_POINT('',(51.0727117163558,-1.5,40.0794603006629));
#1434=CARTESIAN_POINT('',(51.0781262051377,-1.5,43.0674553949184));
#1435=CARTESIAN_POINT('Origin',(51.0727117163558,0.,40.0794603006629));
#1436=CARTESIAN_POINT('Origin',(94.9387342852449,0.,42.9879764256042));
#1437=CARTESIAN_POINT('',(94.9387342852449,-1.5,42.9879764256042));
#1438=CARTESIAN_POINT('Origin',(94.9387342852449,0.,42.9879764256042));
#1439=CARTESIAN_POINT('',(94.933319796463,-1.5,39.9999813313459));
#1440=CARTESIAN_POINT('',(94.9387342852449,-1.5,42.9879764256042));
#1441=CARTESIAN_POINT('Origin',(94.933319796463,0.,39.9999813313459));
#1442=CARTESIAN_POINT('Origin',(137.099256564187,-0.0688641446575459,42.9115781492645));
#1443=CARTESIAN_POINT('',(137.099256564187,-1.56886414465754,42.9115781492645));
#1444=CARTESIAN_POINT('Origin',(137.099256564187,-0.0688641446575459,42.911578149263));
#1445=CARTESIAN_POINT('',(137.093842075406,-1.56886414465754,39.9235830550047));
#1446=CARTESIAN_POINT('',(137.099256564187,-1.56886414465754,42.9115781492645));
#1447=CARTESIAN_POINT('Origin',(137.093842075406,-0.0688641446575459,39.9235830550047));
#1448=CARTESIAN_POINT('Origin',(145.07797327528,4.98433062849782,42.8971200692557));
#1449=CARTESIAN_POINT('',(145.07797327528,-5.00000007450581,42.8971200692557));
#1450=CARTESIAN_POINT('',(145.07797327528,4.98433062849782,42.8971200692557));
#1451=CARTESIAN_POINT('',(145.07797327528,-5.00000007450581,42.8971200692557));
#1452=CARTESIAN_POINT('',(145.072558786498,-5.00000007450581,39.9091249749975));
#1453=CARTESIAN_POINT('',(145.07797327528,-5.00000007450581,42.8971200692557));
#1454=CARTESIAN_POINT('',(145.072558786498,4.98433062849782,39.9091249749975));
#1455=CARTESIAN_POINT('',(145.072558786498,-5.00000007450581,39.9091249749974));
#1456=CARTESIAN_POINT('',(145.07797327528,4.98433062849782,42.8971200692557));
#1457=CARTESIAN_POINT('Origin',(44.8012444103553,4.98433062849782,43.0788296124079));
#1458=CARTESIAN_POINT('',(44.8012444103553,4.98433062849782,43.0788296124079));
#1459=CARTESIAN_POINT('',(145.07797327528,4.98433062849782,42.8971200692557));
#1460=CARTESIAN_POINT('',(44.7958299215735,4.98433062849782,40.0908345181496));
#1461=CARTESIAN_POINT('',(145.072558786498,4.98433062849782,39.9091249749974));
#1462=CARTESIAN_POINT('',(44.8012444103553,4.98433062849782,43.0788296124079));
#1463=CARTESIAN_POINT('Origin',(0.0782091777212606,0.,43.15987136948));
#1464=CARTESIAN_POINT('',(44.7994952952098,-5.00000007450581,43.0788327819471));
#1465=CARTESIAN_POINT('Origin',(0.0782091777212606,0.,43.15987136948));
#1466=CARTESIAN_POINT('',(44.794080806428,-5.00000007450581,40.0908376876889));
#1467=CARTESIAN_POINT('Origin',(0.0727946889394775,0.,40.1718762752218));
#1468=CARTESIAN_POINT('',(44.7994952952098,-5.00000007450581,43.0788327819471));
#1469=CARTESIAN_POINT('Origin',(145.07797327528,-5.00000007450581,42.8971200692557));
#1470=CARTESIAN_POINT('',(40.1024725839596,-5.00000007450581,43.0873441669983));
#1471=CARTESIAN_POINT('',(40.0970580951778,-5.00000007450581,40.09934907274));
#1472=CARTESIAN_POINT('Origin',(94.9387342852449,-0.00783472300399379,42.9879764256042));
#1473=CARTESIAN_POINT('Origin',(94.9333197964631,-0.00783472300399379,39.9999813313459));
#1474=UNCERTAINTY_MEASURE_WITH_UNIT(LENGTH_MEASURE(0.01),#1478,
'DISTANCE_ACCURACY_VALUE',
'Maximum model space distance between geometric entities at asserted c
onnectivities');
#1475=UNCERTAINTY_MEASURE_WITH_UNIT(LENGTH_MEASURE(0.01),#1478,
'DISTANCE_ACCURACY_VALUE',
'Maximum model space distance between geometric entities at asserted c
onnectivities');
#1476=(
GEOMETRIC_REPRESENTATION_CONTEXT(3)
GLOBAL_UNCERTAINTY_ASSIGNED_CONTEXT((#1474))
GLOBAL_UNIT_ASSIGNED_CONTEXT((#1478,#1480,#1481))
REPRESENTATION_CONTEXT('','3D')
);
#1477=(
GEOMETRIC_REPRESENTATION_CONTEXT(3)
GLOBAL_UNCERTAINTY_ASSIGNED_CONTEXT((#1475))
GLOBAL_UNIT_ASSIGNED_CONTEXT((#1478,#1480,#1481))
REPRESENTATION_CONTEXT('','3D')
);
#1478=(
LENGTH_UNIT()
NAMED_UNIT(*)
SI_UNIT(.MILLI.,.METRE.)
);
#1479=(
LENGTH_UNIT()
NAMED_UNIT(*)
SI_UNIT($,.METRE.)
);
#1480=(
NAMED_UNIT(*)
PLANE_ANGLE_UNIT()
SI_UNIT($,.RADIAN.)
);
#1481=(
NAMED_UNIT(*)
SI_UNIT($,.STERADIAN.)
SOLID_ANGLE_UNIT()
);
#1482=SHAPE_DEFINITION_REPRESENTATION(#1483,#1484);
#1483=PRODUCT_DEFINITION_SHAPE('',$,#1486);
#1484=SHAPE_REPRESENTATION('',(#611),#1476);
#1485=PRODUCT_DEFINITION_CONTEXT('part definition',#1490,'design');
#1486=PRODUCT_DEFINITION('flametrenchv1','flametrenchv1 v1',#1487,#1485);
#1487=PRODUCT_DEFINITION_FORMATION('',$,#1492);
#1488=PRODUCT_RELATED_PRODUCT_CATEGORY('flametrenchv1 v1',
'flametrenchv1 v1',(#1492));
#1489=APPLICATION_PROTOCOL_DEFINITION('international standard',
'automotive_design',2009,#1490);
#1490=APPLICATION_CONTEXT(
'Core Data for Automotive Mechanical Design Process');
#1491=PRODUCT_CONTEXT('part definition',#1490,'mechanical');
#1492=PRODUCT('flametrenchv1','flametrenchv1 v1',$,(#1491));
#1493=PRESENTATION_STYLE_ASSIGNMENT((#1494));
#1494=SURFACE_STYLE_USAGE(.BOTH.,#1495);
#1495=SURFACE_SIDE_STYLE('',(#1496));
#1496=SURFACE_STYLE_FILL_AREA(#1497);
#1497=FILL_AREA_STYLE('Stahl - satiniert',(#1498));
#1498=FILL_AREA_STYLE_COLOUR('Stahl - satiniert',#1499);
#1499=COLOUR_RGB('Stahl - satiniert',0.627450980392157,0.627450980392157,
0.627450980392157);
ENDSEC;
END-ISO-10303-21;
